<svg viewBox="0 0 343 344" fill="none" xmlns="http://www.w3.org/2000/svg"><path fill="#fff" d="M0 0h343v344H0z"/><path fill-rule="evenodd" clip-rule="evenodd" d="M236.571 43.174c-53.705-8.836-48.229 79.614-119.687 67.508-73.09-12.383-94.935 74.969-73.09 123.219 23.594 52.112 174.672 80.127 228.72 41.711 60.832-43.237 64.822-215.859-35.943-232.438z" fill="#FF866B"/><path fill-rule="evenodd" clip-rule="evenodd" d="M117.3 138.131s6.166 13.485 11.522 19.736c7.6 8.871 18.453 16.241 22.529 23.159 9.684 16.44 5.388 24.481 5.388 24.481s-5.116-17.722-12.448-26.377c-5.597-6.607-16.59-13.933-20.264-19.359-6.619-9.773-10.038-19.135-10.038-19.135l3.311-2.505z" fill="#fff"/><path d="M193.431 281.659a2481.662 2481.662 0 00-75.786 4.712c-3.236.321-5.631.369-5.503.713-2.275-.145-6.388-1.386-8.779-.392 1.801.419 5.206 2.015 5.408 3.858a370.811 370.811 0 01-71.4-2.771 775.841 775.841 0 0069.551 1.627c-2.989-2.012-6.832-2.697-10.33-1.84a23.322 23.322 0 0114.641-1.868 29.216 29.216 0 01-7.045-15.101 24.238 24.238 0 018.52 10.397c-.171-7.855 5.372-15.487 12.878-17.734-4.794 6.123-7.328 13.986-7.014 21.765a1400.655 1400.655 0 0172.024-4.307 6.076 6.076 0 01-2.207-3.858c1.175-1.006 2.912-1.302 4.352-.742 1.058-8.398 6.883-16.024 14.692-19.234a37.757 37.757 0 00-8.663 17.473 5.55 5.55 0 014.533-.527 8.315 8.315 0 01-2.962 4.627c29.765-6.823 61.011 4.801 91.247.538-15.263 4.95-31.755 1.112-47.711-.553-23.356-2.324-45.788 2.276-50.446 3.217zM256.414 100.079c.262-2.498 2.407-4.37 4.606-5.573a21.343 21.343 0 0113.148-2.381c2.031.29 3.58-1.65 5.031-3.105 3.766-3.774 9.522-5.152 14.775-4.28 5.253.871 10.013 3.782 13.847 7.487 3.834 3.706 6.826 8.19 9.596 12.751.58.957 1.928.982 3.043.927 2.408-.118 4.941-.051 7.044 1.129 2.103 1.181 3.58 3.803 2.73 6.064-.399 1.059-1.245 1.903-2.212 2.488-1.928 1.165-4.266 1.366-6.511 1.538l-44.912 3.439c-4.096.314-8.257.624-12.28-.212-4.022-.835-7.961-2.986-10.02-6.551-2.06-3.565-1.715-8.643 1.444-11.277.668-.556.58-1.578.671-2.444M206.303 123.084c3.268 3.764 20.134 2.446 20.681 9.333l-5.797 1.594c-3.141.865-6.319 1.743-9.161 3.34-1.333.749-2.919 1.676-4.275.969-5.245-2.734-11.344-3.583-17.229-3.019-5.884.564-11.575 2.487-16.915 5.029-2.788 1.328-5.929 2.86-8.814 1.763-10.535-4.006-22.553-3.936-33.04.193-1.859.732-3.932-.081-5.762-.884l-5.938-2.605c2.553-2.928 13.465-7.001 15.69-9.835.391-.498 14.961-10.632 30.939-6.053.716-.337 25.566-4.579 39.621.175z" fill="#fff"/><path fill-rule="evenodd" clip-rule="evenodd" d="M140.994 170.94c-9.265-8.832-19.961-17.772-22.456-30.344 4.579 11.795 14.748 20.286 23.666 29.242 8.918 8.955 17.365 20.127 16.814 32.772a135.112 135.112 0 0144.517-2.205c1.519-6.863 5.943-12.642 9.414-18.75 8.604-15.143 11.513-32.772 14.278-49.98.699-4.35-4.612-6.929-8.87-8.017l-12.757-3.26c-7.992-2.042-16.272-4.099-24.401-2.702-5.497.944-10.925 3.456-16.422 2.515-8.751-1.497-18.035.399-25.505 5.209-3.755 2.418-7.093 5.552-11.192 7.321-8.628 3.723-16.227 9.81-21.755 17.427-2.887-14.981 1.978-30.312 7.666-44.463 6.358-15.82 14.34-31.826 28.021-41.959 20.057-14.855 46.208-11.964 67.073 1.728 20.865 13.692 33.614 36.271 37.734 60.935.479 2.868.819 5.973-.528 8.549-1.346 2.576-1.854 4.067-4.05 2.166-1.871-1.62-3.863-3.3-6.291-3.766-2.429-.467-5.375.799-5.845 3.233-3.448 17.827-7.069 36.106-16.648 51.516-2.495 4.013-5.4 7.845-6.986 12.298-1.214 3.407-1.605 7.045-1.988 10.643l-2.391 22.492c-.336 3.16-.804 6.602-3.1 8.793-2.192 2.092-5.454 2.468-8.468 2.737l-29.365 2.615c-1.751.156-3.736.236-5.014-.973-.985-.932-1.258-2.375-1.452-3.719a101.108 101.108 0 01.001-28.813c1.974-13.685-4.132-27.686-13.751-37.593-5.012-5.163-10.923-9.383-15.927-14.554-5.004-5.171-9.193-11.67-9.493-18.87 3.405 9.463 9.68 17.865 17.777 23.804 12.099 8.874 20.72 22.394 23.676 37.133 2.324-12.606-6.717-24.329-15.982-33.16z" fill="#fff"/><path fill-rule="evenodd" clip-rule="evenodd" d="M115.957 199.743c-1.468-.807-2.009-2.617-2.395-4.251a194.83 194.83 0 01-4.143-24.349c-.055-.521-.08-1.123.298-1.484.81.957.953 2.295 1.077 3.544a145.602 145.602 0 005.163 26.54zM232.389 172.434a89.288 89.288 0 002.931-13.647c.084-.625.318-1.411.945-1.459.366.32.331.892.262 1.374a102.155 102.155 0 01-2.519 12.209c-.221.814-.838 1.837-1.619 1.523zM198.478 279.713a10.664 10.664 0 013.764-4.952 7.646 7.646 0 00-4.873 2.188 44.745 44.745 0 015.229-15.987c-5.054 4.16-8.316 10.439-8.819 16.977a5.087 5.087 0 00-4.036-.457l3.688 4.177a2481.662 2481.662 0 00-75.786 4.712c-1.312-6.994.394-14.505 4.597-20.24-5.546 3.923-8.97 10.695-8.849 17.501-2.473-3.308-3.705-8.034-7.419-9.925.657 3.242 1.416 3.971 5.779 12.347.178.342.261.686.389 1.03-2.275-.145-6.388-1.386-8.779-.392 1.801.419 5.206 2.015 5.408 3.858a370.811 370.811 0 01-71.4-2.771 775.841 775.841 0 0069.551 1.627c-2.989-2.012-6.832-2.697-10.33-1.84a23.322 23.322 0 0114.641-1.868 29.216 29.216 0 01-7.045-15.101 24.238 24.238 0 018.52 10.397c-.171-7.855 5.372-15.487 12.878-17.734-4.794 6.123-7.328 13.986-7.014 21.765a1400.655 1400.655 0 0172.024-4.307 6.076 6.076 0 01-2.207-3.858c1.175-1.006 2.912-1.302 4.352-.742 1.058-8.398 6.883-16.024 14.692-19.234a37.757 37.757 0 00-8.663 17.473 5.55 5.55 0 014.533-.527 8.315 8.315 0 01-2.962 4.627c29.765-6.823 61.011 4.801 91.247.538-15.263 4.95-31.755 1.112-47.711-.553a172.831 172.831 0 00-45.399 1.271zM211.881 170.562c.365.538.25 1.257.103 1.891a33.42 33.42 0 01-4.579 10.722c-.594-.743-.048-1.82.453-2.63a23.469 23.469 0 002.885-7c.243-1.048.44-2.166 1.138-2.983zM206.183 177.472c-.55-.476-.304-1.361-.04-2.04a27.756 27.756 0 001.688-6.792c.091-.771.235-1.677.928-2.023.326.296.277.814.201 1.248-.574 3.301-1.171 6.669-2.777 9.607zM160.42 189.774c.161-.145.412.004.562.161a4.038 4.038 0 011.098 2.631 3.445 3.445 0 01-1.732-2.391c-.026-.14-.033-.306.072-.401zM230.928 160.299a37.596 37.596 0 01-2.84 12.349.718.718 0 01-.171.278c-.243.21-.652-.017-.739-.326-.087-.31.037-.635.154-.934a35.87 35.87 0 002.271-9.144c.104-.931.397-2.114 1.325-2.223zM158.859 182.465a27.742 27.742 0 01-3.741-6.983c-.117-.32-.046-.861.282-.772.124.034.197.157.258.27l4.096 7.659c-.07.384-.663.14-.895-.174zM114.092 138.162c-.723-.376-.752-1.386-.665-2.197 1.616-15.123 8.957-29.56 20.214-39.752.258 1.919-1.218 3.58-2.528 5.003-9.326 10.132-15.372 23.255-17.021 36.946zM208.718 138.147c.206-4.966-.622-10.43-2.415-15.063 3.268 3.764 3.403 9.241 3.369 14.232a34.9 34.9 0 0117.312-4.899l-5.797 1.594c-3.141.865-6.319 1.743-9.161 3.34-1.333.749-2.919 1.676-4.275.969-5.245-2.734-11.344-3.584-17.229-3.019-5.884.564-11.575 2.945-16.915 5.488-2.788 1.327-5.929 2.86-8.814 1.763-10.535-4.006-22.553-4.395-33.04-.266-1.859.732-3.932-.081-5.762-.884l-5.938-2.605c2.301.484 8.014 2.545 8.014 2.545s1.646.2 2.164-.434c.518-.634.682-1.477.868-2.275a24.913 24.913 0 014.644-9.671c.391-.498 1.228-.963 1.539-.412a25.594 25.594 0 00-5.853 12.707c11.221-4.245 24.026-4.111 35.157.368a56.986 56.986 0 00.096-18.716c.716-.337 1.242.733 1.312 1.523a82.783 82.783 0 01-.274 17.296c6.437-3.119 13.113-5.937 20.172-7.074 7.058-1.137 14.592-.018 20.826 3.493zM126.9 125.818a79.794 79.794 0 0115.355-26.332c.494-.563 1.082-1.16 1.83-1.186.747-.025 1.449.954.922 1.486a77.292 77.292 0 00-17.611 27.696c-.684.018-.722-1.016-.496-1.664zM116.268 169.312c.099.12.11.287.118.443.323 6.432 1.953 12.718 3.574 18.95.069.266-.318.459-.561.331-.243-.127-.349-.413-.434-.674a79.023 79.023 0 01-3.589-18.02c-.024-.305-.041-.634.12-.893.162-.26.579-.374.772-.137zM166.936 117.076c-.675.028-.895-.892-.885-1.57l.307-21.254c.011-.782.222-1.801.997-1.887.69.81.675 1.987.624 3.05l-1.043 21.661zM231.981 127.919c1.496-2.438 1.395-5.505 1.143-8.356-.442-4.994-1.2-9.961-2.268-14.859-.102-.47-.163-1.061.231-1.335.326-.225.802-.069 1.057.234.255.304.345.711.423 1.1a85.447 85.447 0 011.66 18.525c-.045 2.309-.422 5.019-2.444 6.126-.388-.355-.078-.986.198-1.435zM208.271 111.505a11.336 11.336 0 01-.607 6.825c-.618-.666-.445-1.71-.338-2.614.416-3.509-.809-7.004-2.316-10.199-1.507-3.195-3.328-6.28-4.233-9.695-.137-.514-.116-1.258.407-1.35.441-.076.742.425.906.843l5.08 12.906c.423 1.075.848 2.156 1.101 3.284zM254.127 98.704c.262-2.499 2.407-4.372 4.606-5.574a21.343 21.343 0 0113.148-2.38c2.031.29 3.58-1.651 5.031-3.106 3.766-3.774 9.522-5.153 14.775-4.28 5.253.871 10.013 3.782 13.847 7.487 3.834 3.706 6.826 8.19 9.596 12.751.581.957 1.928.982 3.044.927 2.407-.118 4.94-.051 7.043 1.129 2.103 1.181 3.581 3.803 2.73 6.064-.399 1.059-1.245 1.903-2.212 2.488-1.928 1.165-4.266 1.366-6.511 1.538l-44.912 3.439c-4.096.314-8.257.624-12.279-.212-4.023-.835-7.962-2.986-10.021-6.551-2.059-3.565-1.715-8.643 1.444-11.277.668-.556.58-1.578.671-2.444m5.672-4.798c-1.793.857-3.581 2.118-4.172 4.019-.21.677-.253 1.396-.449 2.078-.506 1.768-1.964 3.096-2.734 4.765-1.604 3.481.224 7.81 3.283 10.111 3.058 2.301 7.019 2.985 10.833 3.254 13.727.97 27.377-2.523 41.134-2.871 5.403-.136 10.979.187 16.034-1.733 1.913-.727 4.016-2.565 3.194-4.445-.207-.474-.581-.855-.973-1.193-2.42-2.087-5.886-2.886-8.971-2.067-1.574.417-2.888-1.184-3.75-2.569-3.749-6.026-7.994-12.032-14.051-15.714-6.056-3.681-14.361-4.487-19.995-.183-2.532 1.935-4.887 4.94-8.052 4.603-3.859-.41-7.828.27-11.331 1.945zM50.148 76.248c-.505 1.582.132 3.284.822 4.793.803 1.754 2.121 3.733 4.042 3.611 5.93-.375 11.86-.75 17.791-1.127.86-.054 2.041.17 2.047 1.034L52.54 86.35c-5.003.402-10.234.878-14.458 3.595-4.224 2.718-6.977 8.448-4.699 12.933.864 1.699 2.558 3.12 4.459 3.063l15.367-.459c1.193-.036 2.826.342 2.773 1.538a123.265 123.265 0 00-24.406.963c-2.9.404-5.883.95-8.315 2.585-2.431 1.635-4.179 4.638-3.498 7.493.47 1.971 2.01 3.555 3.79 4.513 1.78.959 3.796 1.375 5.788 1.71 21.134 3.559 42.815-.603 64.188.951 2.392.174 4.98.511 6.684 2.203-18.44-3.549-37.456.412-56.211-.478-4.175-.198-8.334-.637-12.49-1.075-3.402-.359-6.967-.777-9.773-2.738-1.35-.944-2.482-2.248-3.047-3.799-1.4-3.841 1.07-8.229 4.55-10.36 3.48-2.131 7.702-2.554 11.762-2.924-3.318-2.278-4.305-7.075-2.87-10.842 1.437-3.767 4.852-6.514 8.595-7.988 3.743-1.475 7.821-1.83 11.838-2.02-1.184-1.557-2.387-3.145-3.049-4.986-.662-1.842-.71-4.011.346-5.658.735-1.145 1.913-1.92 3.089-2.6 11.248-6.51 24.845-7.265 37.827-6.942 3.528.088 7.17.271 10.343 1.82 4.922 2.404 7.913 7.962 7.943 13.452.03 5.49-2.619 10.788-6.512 14.648-.625-.87.156-2.024.841-2.846 3.172-3.808 4.974-8.885 4.299-13.8-.675-4.915-4.037-9.512-8.724-11.098-1.959-.663-4.05-.803-6.115-.908-13.424-.686-27.493.018-39.25 6.552-1.447.805-2.952 1.82-3.457 3.4z" fill="#00160A"/><path fill-rule="evenodd" clip-rule="evenodd" d="M140.994 170.94c-9.265-8.832-19.961-17.772-22.456-30.344 4.579 11.795 14.748 20.286 23.666 29.242 8.918 8.955 17.365 20.127 16.814 32.772a135.112 135.112 0 0144.517-2.205c1.519-6.863 5.943-12.642 9.414-18.75 8.604-15.143 11.513-32.772 14.278-49.98.699-4.35-4.612-6.929-8.87-8.017l-12.757-3.26c-7.992-2.042-16.272-4.099-24.401-2.702-5.497.944-10.925 3.456-16.422 2.515-8.751-1.497-18.035.399-25.505 5.209-3.755 2.418-7.058 5.703-11.192 7.321-8.951 3.502-14.092 7.744-21.755 17.427-2.887-14.981 1.978-30.312 7.666-44.463 6.358-15.82 14.34-31.826 28.021-41.959 20.057-14.856 49.41-13.34 70.274.352 20.865 13.692 33.614 37.647 37.734 62.311.48 2.868.819 5.973-.527 8.549-1.347 2.576-5.056 4.067-7.252 2.166-1.871-1.62-3.863-3.3-6.291-3.766-2.429-.467-5.375.799-5.845 3.233-3.448 17.827-7.069 36.106-16.648 51.516-2.495 4.013-5.4 7.844-6.986 12.298-1.214 3.407-1.605 7.045-1.988 10.643l-2.391 22.492c-.336 3.16-.804 6.602-3.1 8.793-2.192 2.092-5.454 2.468-8.468 2.737l-29.365 2.615c-1.751.156-3.736.236-5.014-.973-.985-.932-1.258-2.375-1.452-3.719a101.108 101.108 0 01.001-28.813c1.974-13.685-4.132-27.686-13.751-37.593-5.012-5.163-10.923-9.383-15.927-14.554-5.004-5.171-9.193-11.67-9.493-18.87 3.405 9.463 9.68 17.865 17.777 23.803 12.099 8.875 20.72 22.395 23.676 37.134 2.324-12.606-6.717-24.329-15.982-33.16zm20.78-52.468c3.937.386 8.06 1.367 11.734-.103 9.893-3.957 21.37-3.748 31.114.568 4.158 1.842 8.839 1.943 13.317 2.729s9.205 2.578 11.485 6.522c2.561 4.43 10.084 3.206 13 7.408 1.209 1.743 4.184 1.079 5.329-.707 1.144-1.786.99-4.085.734-6.193-2.083-17.155-8.348-33.976-19.159-47.434-10.81-13.459-26.319-23.355-43.334-26.091-17.015-2.736-35.374 2.1-47.967 13.897-7.622 7.14-12.909 16.403-17.554 25.769-8.091 16.312-14.714 34.12-13.407 52.291 5.43-6.59 11.329-13.504 19.473-16.027 1.945-.603 4.076-.99 5.552-2.396 7.824-7.451 18.945-11.285 29.683-10.233zm8.703 112.431a42.464 42.464 0 001.932 12.946c.111.357.249.741.566.939.307.192.699.156 1.059.113l13.132-1.575c.16-.02.339-.049.435-.18.1-.135.07-.323.035-.488l-2.364-11.14c-.044-.209-.095-.43-.242-.584-.18-.19-.461-.235-.721-.268a81.767 81.767 0 00-12.974-.607c-.254.008-.538.032-.704.224-.142.164-.153.402-.154.62zm13.891-15.479c-.144-.198-.417-.237-.66-.258a64.57 64.57 0 00-13.266.191c-.255.03-.525.068-.722.232-.323.27-.326.758-.301 1.179l.441 7.499c.035.611.272 1.416.881 1.386a74.684 74.684 0 0112.938.473c.59.074.817-.743.816-1.339l-.015-8.838c0-.182-.004-.378-.112-.525zm-27.357 16.984c-.333.151-.674.322-.899.61-.36.46-.345 1.1-.312 1.683l.339 6.138c.057 1.035.117 2.088.467 3.064.35.975 1.037 1.881 2.007 2.242.798.298 1.682.198 2.528.094l4.8-.592c.658-.081 1.338-.17 1.9-.52a65.83 65.83 0 01-2.966-14.089c-.033-.335-.482-.414-.817-.393-2.43.154-4.83.754-7.047 1.763zm43.055-5.479l1.422-8.81c.041-.257.076-.545-.075-.757-.153-.216-.441-.275-.701-.317a336.222 336.222 0 00-10.432-1.513c-.261-.033-.579-.044-.73.173-.09.13-.087.3-.08.458l.378 9.185c.011.279.038.592.246.778.147.131.353.167.548.199l8.776 1.421c.383.062.586-.433.648-.817zm-30.411-17.324c-.063.338-.084.771.216.937.144.08.32.066.483.05l13.762-1.325c.237-.023.487-.051.677-.193.26-.194.34-.543.401-.861l1.122-5.822c.053-.275.086-.612-.133-.788-.153-.122-.369-.112-.564-.096l-13.192 1.108c-.359.03-.734.065-1.038.26-.515.328-.67.998-.782 1.599l-.952 5.131zm20.668-6.382l-.516 5.046c-.028.277-.052.574.082.818.199.36.657.465 1.062.533l11.042 1.865c.153.026.315.051.458-.01.271-.117.331-.469.351-.765.146-2.171.179-4.349.098-6.524-.014-.374-.033-.759-.185-1.101-.462-1.039-1.834-1.212-2.969-1.235l-7.971-.163c-.275-.005-.564-.008-.808.12-.479.252-.589.877-.644 1.416zm39.186-71.556c-1.9 2.483-2.421 5.725-2.903 8.818-2.441 15.641-5.605 31.645-14.186 44.933-2.94 4.553-6.605 9.047-7.02 14.455 1.619-5.63 6.102-9.89 9.18-14.87 2.258-3.654 3.765-7.718 5.145-11.788a235.809 235.809 0 008.022-30.049c.722-3.659 1.435-7.509 3.784-10.401a2.505 2.505 0 01-2.022-1.098zm-65.855 94.569c.256-.066.529-.144.695-.35.178-.22.186-.529.185-.812l-.01-8.098c0-.194-.006-.406-.129-.556-.176-.216-.502-.208-.779-.178a36.793 36.793 0 00-6.313 1.259c-.242.07-.496.151-.668.336-.197.212-.248.519-.287.807a53.535 53.535 0 00-.478 8.803c.006.24.041.524.254.634.147.077.324.036.484-.005l7.046-1.84zm34.4 14.542c1.556-1.875 1.569-4.551 1.505-6.99-.012-.474-.569-.71-1.029-.823a58.96 58.96 0 00-7.47-1.344c-.22-.025-.461-.044-.645.081-.28.19-.277.598-.241.935a48.297 48.297 0 001.943 9.283c.11.35.255.736.587.894.178.085.383.088.581.082 1.791-.052 3.623-.736 4.769-2.118zm-37.582-36.31c-.611.176-1.235.383-1.716.8-.456.395-.747.949-.973 1.51-.718 1.783-.881 3.733-1.037 5.65-.011.146-.019.308.07.424.134.175.398.152.614.111l5.585-1.05c.53-.1 1.117-.235 1.418-.684.204-.306.23-.693.249-1.061l.342-6.617c-1.539.18-3.063.487-4.552.917zm10.451 9.446a64.59 64.59 0 0112.248-.162c.463.038.971.068 1.345-.206.586-.43.507-1.316.367-2.031-.037-.186-.079-.384-.209-.522-.207-.22-.554-.211-.855-.186l-12.206 1.027c-.562.047-1.161.109-1.597.467-.435.358-.577 1.125-.128 1.466.285.216.68.185 1.035.147zm30.977-.325c-.489-.501-1.225-.648-1.913-.771l-9.135-1.628c-.397-.07-.885-.107-1.124.219-.105.142-.134.324-.16.499-.129.868-.022 2.078.846 2.193l10.384 1.372c.343.045.711.087 1.018-.075.619-.326.573-1.308.084-1.809zm-35.078 17.229c-.206.568-.103 1.196.004 1.791a250.95 250.95 0 002.185 10.872c.11.486.232.992.554 1.371.322.38.909.582 1.329.316.63-.401.397-1.359.126-2.056-1.4-3.602-1.798-7.512-1.992-11.374-.034-.678-.164-1.505-.799-1.739-.566-.209-1.201.25-1.407.819zm32.438.671c.737-.283.227-1.544.754-2.133a60.554 60.554 0 00-9.324-1.569c-.741-.065-1.084 1.055-.643 1.656.441.601 1.248.772 1.981.899l1.983.343 4.654.808c.198.034.407.067.595-.004zm-27.616-2.76a59.334 59.334 0 0111.39.427c.754.102 1.799.013 1.9-.743.104-.782-.946-1.125-1.732-1.164a133.127 133.127 0 00-11.46-.08c-.677.024-1.604.368-1.426 1.023.137.502.81.567 1.328.537zm14.585-12.843c-.179.373-.183.802-.185 1.216l-.025 7c-.002.517 0 1.054.217 1.524.217.469.714.852 1.222.762.843-.15.999-1.282.952-2.139l-.405-7.448c-.033-.61-.192-1.378-.789-1.502-.404-.085-.809.214-.987.587zm2.596 16.145c-.169-.489-.559-.939-1.07-1.009-.51-.071-1.073.389-.975.896l1.794 9.27c.14.723.334 1.528.956 1.92.623.393 1.704-.133 1.472-.832-.945-2.837-1.897-5.723-1.998-8.712-.017-.517-.011-1.045-.179-1.533zm-20.822-6.592c.278-.498.256-1.103.226-1.672l-.31-5.963c-.032-.617-.085-1.289-.502-1.744-.416-.456-1.329-.46-1.53.125-.053.155-.048.324-.042.488l.284 7.977c.016.461.066.989.439 1.259.461.334 1.157.028 1.435-.47zm-1.426-21.751c-.526.73-.55 1.697-.553 2.598l-.014 3.724c-.002.665.241 1.574.901 1.51.517-.051.723-.684.809-1.197l1.158-6.915c-.541-.719-1.774-.45-2.301.28zm-3.623 25.893c.544-.048 1.15-.095 1.517-.5s.138-1.269-.403-1.194l-5.007.688c-.866.119-1.785.261-2.445.836-.659.575-.877 1.743-.202 2.299a15.456 15.456 0 016.54-2.129zm-6.085-14.989c-.498.477-.588 1.435.002 1.792a28.302 28.302 0 015.893-1.294c.493-.054 1.017-.106 1.412-.407.396-.3.57-.951.212-1.296-.282-.272-.731-.232-1.118-.174l-4.493.676c-.681.102-1.409.226-1.908.703zm31.221-12.827c-.177.189-.23.458-.276.712l-1.055 5.821c-.064.351-.103.774.17 1.003.278.233.733.09.952-.2.22-.29.268-.671.309-1.033l.654-5.835c.02-.175.034-.37-.075-.508-.16-.202-.503-.148-.679.04zm-.658 25.697c-.732-.09-1.441.848-.985 1.428.319.407.694.821 1.197.932.504.11 1.131-.258 1.082-.773-.069-.736-.562-1.498-1.294-1.587zm.29-14.895c.246-.594.305-1.545-.332-1.619-.249-.03-.485.124-.656.308-.795.856-.384 2.489.719 2.865a1.634 1.634 0 00.319-1.524c-.176-.566-.277.518-.05-.03zm-19.759 1.089c-.149-.548-.602-1.062-1.168-1.068-.734-.007-1.214 1.037-.732 1.592.482.554 1.58.22 1.672-.51.083-.646.398.615.228-.014zm.447 15.052c.174-.148.299-.354.351-.577a1.75 1.75 0 00-1.986-.412c-.145.068-.286.161-.369.299-.237.395.156.925.609 1 .453.075.896-.146 1.302-.361l.093.051z" fill="#00160A"/></svg>