<svg viewBox="0 0 326 174" fill="none" xmlns="http://www.w3.org/2000/svg"><path fill="#fff" d="M0 0h326v174H0z"/><path fill-rule="evenodd" clip-rule="evenodd" d="M289.771 119.665C289.771 53.575 236.351 0 170.453 0 104.556 0 46.089 53.689 51.136 119.665c6.016 78.636 238.635 63.659 238.635 0z" fill="#5FF1E0"/><path d="M76.262 118.151c.39-.035.9.005 1.01.382.003.455-.571.644-1.021.7l-7.276.907c1.128.96 1.24 2.864.286 3.997s-2.777 1.366-4.025.571c-.416-.266-.77-.625-1.208-.853-.438-.229-1.016-.296-1.395.02-.856.716-2.148.523-3.173.083-1.016-.435-2.019-1.178-2.255-2.261-.235-1.072.35-2.153 1.04-3.005.69-.853 1.525-1.624 1.94-2.64.609-1.491 2.407-2.233 3.999-2.022 1.592.211 2.986 1.183 4.146 2.297.747.718 1.958.436 2.945.127.987-.31 2.227-.538 2.918.233" fill="#fff"/><path fill-rule="evenodd" clip-rule="evenodd" d="M216.278 113.965c0-11.16 8.225-13.732 13.444-13.6 5.219.131 10.198 3.501 12.135 8.201 1.937 4.7.73 10.461-2.936 14.064-3.666 3.604-11.406 3.648-13.637 2.969-2.232-.68-9.006-5.405-9.006-11.634z" fill="#fff"/><path fill-rule="evenodd" clip-rule="evenodd" d="M229.073 106.251a6.77 6.77 0 015.156 1.836c2.106 2.016 2.65 5.485 1.263 8.052-1.387 2.567-4.581 4.004-7.416 3.336-2.699-.636-4.861-3.116-5.129-5.883-.269-2.768 1.375-5.619 3.902-6.766a6.679 6.679 0 012.224-.575m3.251 1.298c-.663-.489-1.392-.898-2.18-1.056-.896-.179-1.835-.022-2.676.36-2.138.97-3.595 3.485-3.456 5.992.14 2.507 1.876 4.82 4.117 5.46 2.241.639 4.814-.458 6.037-2.591 1.223-2.133.984-5.132-.57-6.995a7.182 7.182 0 00-1.272-1.17z" fill="#00160A"/><path fill-rule="evenodd" clip-rule="evenodd" d="M103.742 114.764c-.046-.727-.04-1.462.088-2.179.097-.544.263-1.072.43-1.599.358-1.136.717-2.275 1.208-3.36 2.406-5.319 8.159-8.92 13.98-8.77 5.821.153 11.374 4.041 13.534 9.464 2.161 5.424.815 12.07-3.274 16.228-4.089 4.158-10.687 5.602-16.137 3.543-5.449-2.058-9.455-7.499-9.829-13.327" fill="#fff"/><path fill-rule="evenodd" clip-rule="evenodd" d="M119.358 49.057c.03 2.309-.558 4.778.506 6.825 1.973 3.792 7.513 3.087 11.588 1.826l-10.047-11.47 20.815-21.314c.578-.592 1.246-1.226 2.073-1.242.953-.018 1.699.782 2.309 1.516l6.818 8.202c1.873 2.253 3.656 5.901 1.364 7.722l25.795-1.755c-1.61-9.224 1.349-20.576 4.27-29.47.291-.887.643-1.85 1.45-2.314.566-.325 1.251-.338 1.903-.343l47.096-.326c.951-.006 1.954 0 2.776.48.705.413 1.18 1.119 1.625 1.805 13.281 20.477 21.573 46.196 23.957 70.507.299 3.05 4.196 24.887 0 25.535-19.981 3.084-16.065-15.077-37.167-12.42-17.338 2.183-14.063 12.42-24.084 14.415-9.002 1.791-39.707 2.237-49.66 2.737-13.654.686-14.619-20.016-35.412-19.175-20.794.841-20.318 24.52-31.52 21.809-.467-.113-5.538-3.071-5.653-3.426-1.65-5.116-2.888-23.843-2.888-23.843l-3.91-.871s-.288-9.668 0-9.977c.506-.544 9.37.432 13.206 0l-3.4-23.68c-.098-.68-.183-1.43.187-2.01.41-.645 1.235-.86 1.982-1.016a181.81 181.81 0 0130.375-3.731c2.301-.088 3.616 2.695 3.646 5.004z" fill="#fff"/><path fill-rule="evenodd" clip-rule="evenodd" d="M99.185 70.592l-4.5.321-2.53-24.416 3.941-.65 3.09 24.745z" fill="#FFB61D"/><path fill-rule="evenodd" clip-rule="evenodd" d="M205.463 24.087c1.219-.236 24.598 16.036 24.355 16.3-.242.264-24.837-16.207-24.355-16.3zM215.49 24.087c.945-.17 12.927 7.956 12.594 8.429-.333.473-13.199-8.321-12.594-8.43zM202.956 29.115c-.454-.806 12.956 8.5 12.595 8.429-3.455-.677-12.461-8.193-12.595-8.43z" fill="#E7EAEE"/><path fill-rule="evenodd" clip-rule="evenodd" d="M201.372 55.367c.294.233.173.762-.159.937-.332.174-.754.058-1.048-.176-.885-.703-.701-2.194.073-3.018.775-.823 1.924-1.151 3.014-1.445l1.357-.366c.923-.248 1.904-.497 2.819-.222s1.678 1.293 1.322 2.183c-.223.56-.814.898-1.406 1.005-.591.107-1.198.026-1.798-.015a13.308 13.308 0 00-3.525.23c-.227.045-.466.104-.629.27-.163.165-.202.473-.02.617zM207.304 106.082l-.919 3.811c-.094.388-.197.794-.468 1.087-.404.434-1.058.496-1.649.53a2066.565 2066.565 0 01-55.87 2.454c-1.26.038-2.447-.683-3.274-1.637s-1.353-2.126-1.867-3.28c.814-.197 1.586.452 2.082 1.13.496.677.933 1.477 1.704 1.806.507.217 1.08.191 1.631.162l54.284-2.924c.652-.035 1.36-.092 1.844-.531.499-.452.618-1.176.91-1.783.292-.607 1.009-1.161 1.592-.825z" fill="#00160A"/><path fill-rule="evenodd" clip-rule="evenodd" d="M68.08 116.932a7.97 7.97 0 00-3.21-2.085c-.826-.285-1.773-.422-2.549-.019-.776.404-1.209 1.517-.663 2.202.287.36-.361.701-.81.8-1.343.295-2.356 1.788-1.975 3.113.38 1.324 2.227 2.015 3.293 1.144.386-.315.645-.775 1.063-1.046.418-.271 1.122-.214 1.25.269.272 1.016 1.196 1.824 2.237 1.954.68.086 1.485-.193 1.695-.847.374-1.158-1.33-2.358-.75-3.428.293-.539 1-.655 1.61-.71l6.99-.631c.39-.035.9.005 1.01.382.004.455-.57.644-1.02.7l-7.276.907c1.128.96 1.24 2.864.286 3.997s-2.777 1.366-4.025.571c-.416-.266-.77-.625-1.208-.853-.438-.229-1.016-.296-1.395.02-.856.716-2.148.523-3.173.083-1.016-.435-2.019-1.178-2.255-2.261-.235-1.072.35-2.153 1.04-3.005.69-.852 1.525-1.624 1.94-2.64.609-1.491 2.407-2.233 3.999-2.022 1.592.211 2.986 1.183 4.146 2.297.747.718 1.958.436 2.945.127.987-.31 2.227-.538 2.918.233l-4.27.973c-.633.144-1.399.251-1.843-.225z" fill="#E7EAEE"/><path fill-rule="evenodd" clip-rule="evenodd" d="M96.579 115.55c-.069-1.071-.06-2.154.128-3.211.144-.802.389-1.581.634-2.357.528-1.674 1.057-3.353 1.78-4.952 3.548-7.839 12.026-13.148 20.606-12.925 8.579.224 16.763 5.955 19.948 13.948 3.184 7.993 1.2 17.79-4.827 23.918-6.027 6.129-15.751 8.256-23.783 5.222-8.032-3.034-13.936-11.053-14.486-19.643m4.501-8.018c-.382 1.017-.679 2.083-.678 3.169.004 3.332.265 6.712 1.393 9.846 2.37 6.586 8.758 11.516 15.711 12.153 6.953.637 14.114-3.038 17.689-9.053 3.574-6.014 3.397-14.064-.417-19.929-3.814-5.865-11.071-9.271-18.008-8.478-6.937.794-13.233 5.738-15.69 12.292zM236.851 95.222c7.274 3.066 12.336 10.785 12.263 18.697-.072 7.913-5.276 15.537-12.604 18.468-7.329 2.931-16.336.99-21.818-4.7-5.481-5.691-7.104-14.786-3.931-22.03.75-1.713 1.766-3.349 3.209-4.535 3.27-2.69 6.655-5.436 10.7-6.672 3.971-1.214 8.354-.841 12.181.772m-16.918 3.83c-.955.611-1.858 1.327-2.564 2.216-.747.941-1.252 2.047-1.75 3.141-.746 1.639-1.495 3.288-1.961 5.029-1.6 5.982.564 12.799 5.296 16.778 4.732 3.98 11.779 4.934 17.408 2.386 5.629-2.548 9.572-8.458 9.808-14.647.235-6.189-3.23-12.369-8.609-15.411-5.379-3.043-12.425-2.828-17.628.507zM230.422 14.012l-37.845.808c-.314.007-.663.028-.884.253-.142.146-.203.35-.257.547-2.797 10.232-.531 21.073 1.369 31.51a442.252 442.252 0 013.116 19.594c.642 4.72 1.209 9.465 1.169 14.228-.013 1.515 1.049 2.884 2.371 3.615 1.322.732 2.869.93 4.377 1.003a31.024 31.024 0 009.454-1.001c.573-.152 1.167-.322 1.749-.213.582.11 1.143.6 1.107 1.193-.041.686-.781 1.08-1.426 1.31a23.82 23.82 0 01-12.739.89c-2.025-.417-4.137-1.205-5.298-2.921-.661-.977-.943-2.154-1.2-3.305-2.586-11.583-3.877-23.411-5.137-35.213-1.146-10.726-2.272-21.535-1.311-32.278.03-.332.066-.678.241-.96.377-.608 1.209-.69 1.922-.708l40.03-.986c.757-.018 1.57-.021 2.194.408.461.317.749.824 1.02 1.313l14.513 26.13c.968 1.742 1.967 3.743 1.365 5.644-.447 1.41-1.72 2.433-3.103 2.948-1.382.516-2.882.6-4.355.678l-7.931.425-19.594 1.049c-.375.02-.794.025-1.071-.229-.404-.37-.229-1.094.202-1.432.432-.339 1.011-.398 1.557-.444l29.569-2.5c.773-.066 1.309-.88 1.343-1.656.035-.777-.3-1.517-.63-2.22a388.39 388.39 0 00-13.857-26.775c-.373-.657-1.276-.72-2.03-.705z" fill="#00160A"/><path fill-rule="evenodd" clip-rule="evenodd" d="M111.458 101.405c4.409-2.447 10.144-2.161 14.388.562s6.889 7.719 6.944 12.772c.057 5.147-2.725 10.419-7.372 12.603-1.62.761-3.406 1.14-5.194 1.21-6.515.255-13.033-4.042-15.121-10.236-2.087-6.195.651-13.745 6.355-16.911m10.063 24.933c1.712-.286 3.377-.899 4.833-1.847a11.693 11.693 0 003.668-3.825c2.367-3.993 2.065-9.357-.562-13.183-2.628-3.826-7.38-6.008-12.003-5.725-1.724.105-3.434.53-4.975 1.312-5.317 2.698-7.758 9.818-5.509 15.352 2.25 5.533 8.67 8.899 14.548 7.916zM157.57 92.503c-.767-.684-1.992-.649-2.741-1.354.211-.764.915-1.267 1.409-1.886 1.168-1.465 1.045-3.802-.269-5.135-.665-.675-1.63-1.191-1.806-2.123 1.375-.237 2.764-.681 3.799-1.62 1.035-.937 1.635-2.457 1.181-3.779-.14-.406-.374-.794-.379-1.223-.005-.43.367-.905.779-.787 2.205.63 4.783-.84 5.369-3.064.252-.955 1.653-.861 2.533-.417.88.445 2.001 1.007 2.748.364.633-.545.749-1.81 1.583-1.794.432.008.738.402 1.039.713 1.038 1.07 2.765 1.395 4.12.773.473-.217.912-.54 1.426-.623.514-.083 1.148.207 1.181.728.1 1.577 1.817 2.837 3.346 2.453.583-.146 1.573-.114 1.376.455-.604 1.739.686 3.869 2.502 4.134.463.067.954.035 1.373.243.418.21.695.804.381 1.15-1.352 1.489-.781 4.248 1.049 5.075.493.222.377.994.003 1.387-.373.392-.911.63-1.184 1.099-.475.814.09 1.852.78 2.492.69.641 1.557 1.18 1.881 2.065-1.299-.497-2.909.015-3.684 1.173-.776 1.157-.64 2.845.311 3.864-.502.905-1.843.544-2.872.635-1.251.11-2.347 1.197-2.471 2.451-.054.546.054 1.118-.14 1.63-.193.513-.9.883-1.287.496-1.437-1.441-4.187-1.151-5.295.558-.263.406-.522.925-1.002.969-.757.069-.999-1.028-1.615-1.475-.764-.553-1.848.075-2.385.851-.537.776-.872 1.746-1.663 2.26-1.501-1.105-1.046-4.235-2.89-4.491-.797-.11-1.499.483-2.253.762-.754.28-1.917-.094-1.776-.887.231-1.3.036-3.031-1.236-3.368-1.256-.333-2.862.977-3.729.007.939-1.47 1.81-3.601.508-4.761m.837-8.089c-.576 1.047-.471 2.317-.579 3.508-.108 1.19-.606 2.535-1.746 2.886 1.288.091 2.494.947 3.008 2.136.514 1.188.314 2.656-.499 3.662 1.055-.793 2.666-.562 3.624.347.958.909 1.301 2.343 1.106 3.651 1.086-.778 2.617-.877 3.793-.244 1.177.632 1.942 1.966 1.897 3.304.324-1.187 1.254-2.225 2.441-2.537 1.187-.313 2.58.196 3.177 1.271.055-.81.817-1.384 1.567-1.692a6.293 6.293 0 015.052.154c-.191-2.527 2.444-4.847 4.918-4.33-.774-.809-.73-2.127-.3-3.163.542-1.306 1.811-2.443 3.214-2.293a2.855 2.855 0 01-1.722-1.831c-.419-1.397.344-2.956 1.531-3.8-1.498-.315-1.98-2.183-2.166-3.707-.097-.795-.05-1.835.707-2.09a7.596 7.596 0 01-3.951-2.7c-.454-.6-.779-1.545-.202-2.026a7.407 7.407 0 01-3.405-1.038c-.783-.47-1.553-1.329-1.256-2.193-2.094 1.038-4.732.873-6.682-.417-.589.93-1.744 1.38-2.842 1.376-1.098-.004-2.157-.397-3.162-.84.119.73-.371 1.414-.903 1.925a8.094 8.094 0 01-5.036 2.224c.831 2.866-1.384 6.211-4.341 6.555.715.877 1.695 1.519 2.757 1.902zM231.057 125.486a12.364 12.364 0 01-5.595-.529c-5.68-1.91-9.393-8.426-8.152-14.304 1.242-5.879 7.271-10.325 13.236-9.761 5.965.564 11.059 6.061 11.184 12.069.125 6.008-4.737 11.713-10.673 12.525m4.287-2.538c3.991-2.43 6.182-7.509 5.214-12.09-.968-4.58-5.025-8.332-9.655-8.929-4.631-.597-9.502 2.004-11.594 6.19-2.091 4.186-1.252 9.656 1.996 13.019 3.545 3.669 9.684 4.461 14.039 1.81z" fill="#00160A"/><path fill-rule="evenodd" clip-rule="evenodd" d="M172.739 72.842c5.093-.058 10.098 2.982 12.405 7.536 2.307 4.553 1.806 10.4-1.244 14.492-3.049 4.09-8.499 6.229-13.506 5.299-4.424-.822-8.35-3.97-10.124-8.116-1.773-4.146-1.342-9.168 1.112-12.95 2.454-3.781 6.859-6.21 11.357-6.26m12.993 12.943a12.921 12.921 0 00-1.79-5.785c-3.181-5.334-10.553-7.668-16.211-5.134-5.659 2.534-8.845 9.598-7.008 15.534 1.837 5.935 8.452 9.948 14.547 8.823 6.094-1.125 10.852-7.236 10.462-13.438z" fill="#00160A"/><path fill-rule="evenodd" clip-rule="evenodd" d="M179.863 86.656a4.6 4.6 0 01-3.968 1.556c-.508-.06-1.292.067-1.156.561l5.208 1.836c.961.339 1.237 1.724.665 2.57-.572.846-1.704 1.162-2.715 1.037-1.012-.125-1.937-.613-2.837-1.092l-2.722-1.45c1.224-.485 2.552.26 3.712.883 1.161.624 2.701 1.111 3.696.247.151-.13.284-.299.311-.497.064-.473-.461-.788-.902-.969l-4.184-1.707c-.704-.287-1.533-.038-2.136.426-.604.463-1.033 1.112-1.47 1.736-.926 1.32-2.042 2.645-3.587 3.094-1.546.449-3.552-.428-3.71-2.033-.1-1.01.531-1.954 1.279-2.636.749-.682 1.639-1.205 2.324-1.951.086-.094.173-.2.184-.328.022-.266-.276-.43-.526-.523l-4.038-1.494c-.583-.216-.22-1.224.396-1.3.616-.074 1.156.373 1.648.752 1.299 1 3.101 1.7 4.551.938 1.034-.543 1.63-1.816 1.385-2.961-.334-1.56.25-3.284 1.462-4.317 1.213-1.033 3.003-1.333 4.484-.75-1.131.533-1.647 2.082-1.063 3.19.584 1.108 2.151 1.553 3.228.917.394-.234.919-.578 1.237-.247.089.091.131.218.165.34a4.634 4.634 0 01-.921 4.172zm-7.263-4.343c-.004 1.707.951 3.464 2.529 4.101 1.579.638 3.673-.151 4.188-1.778.114-.362-.082-.945-.427-.788-.941.427-2.05-.067-2.845-.729-.518-.43-.987-.959-1.184-1.604-.198-.645-.069-1.423.447-1.857a2.195 2.195 0 00-2.2.829c-.378.518-.507 1.183-.508 1.826zm-6.859 10.756c2.055 2.037 3.278-.632 3.775-1.205a50.44 50.44 0 013.66-3.796c.252-.236.262-.65.115-.963-.147-.314-.415-.55-.676-.776-.389-.337-1.015-.24-1.421.076-.405.317-7.507 4.627-5.453 6.664z" fill="#FFB61D"/><path fill-rule="evenodd" clip-rule="evenodd" d="M118.279 107.256a6.772 6.772 0 015.156 1.837c2.105 2.016 2.649 5.485 1.262 8.052-1.387 2.567-4.581 4.004-7.415 3.336-2.699-.636-4.862-3.116-5.13-5.884-.269-2.768 1.376-5.619 3.902-6.765a6.71 6.71 0 012.225-.576m3.25 2.115c-.663-.452-1.391-.831-2.179-.977-.897-.166-1.836-.02-2.677.333-2.137.898-3.594 3.225-3.455 5.544.139 2.32 1.875 4.461 4.116 5.053 2.241.592 4.814-.423 6.037-2.397 1.223-1.974.985-4.749-.57-6.473a7.004 7.004 0 00-1.272-1.083z" fill="#00160A"/><path fill-rule="evenodd" clip-rule="evenodd" d="M119.358 46.04c.03 2.31-.559 4.778.506 6.825 1.973 3.792 7.513 3.087 11.588 1.826l-10.047-11.469 20.815-21.315c.578-.592 1.246-1.225 2.073-1.241.953-.019 1.698.78 2.309 1.515l6.818 8.202c1.873 2.253 3.656 5.901 1.364 7.723l25.795-1.756c-1.61-9.223 1.349-18.565 4.27-27.458.291-.887.643-1.851 1.45-2.315.566-.325 1.251-.338 1.903-.342l47.096-.326c.951-.006 1.954 0 2.776.48.705.412 1.18 1.119 1.625 1.805 13.281 20.477 21.573 44.184 23.957 68.495.299 3.05.626 6.382 2.772 8.563 3.268 3.32 3.619 9.105.778 12.798 2.09 1.52 1.574 5.032-.34 6.77-1.913 1.738-4.632 2.182-7.187 2.551-3.39.491-7.079.929-10.043-.793 4.854-1.141 9.716-2.255 14.583-3.342l-6.477-42.777c-.712-4.702-1.427-9.42-2.754-13.986-1.43-4.917-3.551-9.599-5.665-14.26l-9.989-22.028c-.362-.8-.756-1.637-1.471-2.145-.866-.615-2.01-.613-3.071-.588l-44.336 1.059c-.853.02-1.771.063-2.44.592-.551.435-.83 1.123-1.071 1.783-5.82 15.948-2.411 33.614 1.06 50.236.637 3.054-3.499 4.614-6.598 4.886L75.27 75.34a38.75 38.75 0 00-.364 8.515l7.064.623-2.24.884a132.44 132.44 0 012.297 22.264c.041 2.273 2.006 4.143 4.17 4.821 2.163.677 4.493.425 6.745.167-2.397 1.006-4.895 2.032-7.49 1.904-2.596-.128-5.314-1.769-5.793-4.331a154.952 154.952 0 01-2.585-24.356l-4.092.1a64.392 64.392 0 01-.555-10.324c.02-.742.08-1.552.585-2.095.506-.544 1.31-.66 2.047-.742l11.509-1.296-3.4-23.68c-.098-.681-.183-1.43.187-2.01.41-.646 1.235-.86 1.982-1.016a181.809 181.809 0 0130.375-3.732c2.301-.087 3.616 2.696 3.646 5.005zM88.015 70.678c.026.224.064.472.24.612.171.136.413.122.63.101l30.113-2.867c.277-.027.593-.075.744-.31.119-.183.094-.422.065-.639l-3.077-23.172c-.028-.212-.063-.438-.206-.597-.192-.213-.513-.236-.799-.242a120.656 120.656 0 00-29.534 3.01c-.264.06-.552.138-.702.363-.141.21-.118.487-.09.74l2.616 23zm93.388-30.88c-.043-.357-.118-.766-.428-.949-.198-.116-.442-.107-.671-.094l-26.809 1.518c-.197.011-.41.029-.559.159-.217.189-.204.525-.174.812l2.454 23.214c.026.244.061.508.234.68.222.223.58.21.892.18l27.817-2.557-2.756-22.962zM133.4 52.837c.13.118.272.243.447.264.247.029.463-.156.643-.328 6.041-5.758 13.085-10.51 19.126-16.268.272-.26.565-.567.552-.944-.008-.252-.155-.475-.298-.683-2.408-3.514-5.97-7.929-8.671-11.22-.265-.324-.608-.679-1.022-.626-.264.034-.476.229-.667.414l-20.019 19.342c-.148.144-.308.312-.305.519.003.207.167.371.32.51l9.894 9.02zM152.709 56c-.052-.332-.125-.7-.399-.894-.242-.172-.567-.151-.863-.123l-27.712 2.646c-.482.046-1.048.148-1.258.586-.116.241-.087.524-.056.79l.935 7.936c.044.373.115.793.424 1.004.248.17.573.15.872.124l28.66-2.493c.238-.02.503-.055.653-.242.154-.192.124-.469.086-.713l-1.342-8.621zm-1.92-13.816c-.022-.16-.096-.367-.257-.354-.068.005-.125.053-.176.098L136.1 54.419a645.66 645.66 0 0014.807-1.416c.424-.046.913-.134 1.116-.51.132-.245.098-.543.06-.82l-1.294-9.488zm114.672 44.582l1.366 7.902c.045.261.138.576.396.633.42.092.565-.54.508-.968l-.924-6.838c-.055-.408-.135-.86-.464-1.107-.329-.246-.952-.028-.882.378zM39.498 138.987C30.719 139.126.53 141.37.01 140.246c-.667-1.437 32.252-3.327 39.428-3.44l2.248-.031c6.524-.071-2.188 2.212-2.188 2.212zm67.048-2.751c2.131 0 3.8.692 2.365 1.198-1.435.505-6.079 1.569-13.855 1.749-7.777.179-16.79.364-30.11.627a1.4 1.4 0 01-1.425-1.374 1.402 1.402 0 011.37-1.431l23.585-.482c7.16-.155 11.642-.287 18.07-.287zm106.534-.821a1.4 1.4 0 011.421 1.38 1.4 1.4 0 01-1.376 1.425l-3.278.04-10.028.07c-2.018.021-83.665.544-84.772-.657-1.107-1.2.591-1.418 1.364-1.437 0 0 83.381-.714 85.562-.73l8.339-.056c.969-.009 1.847-.02 2.768-.035zm90.647-2.699s2.511-.434 20.845.942a1.402 1.402 0 011.291 1.504c-.058.773-9.124.382-21.518.361l-3.409.005c-9.101.041-17.555.287-31.587.867l-17.71.75c-7.558.31-12.067.462-17.55.591a1.4 1.4 0 01-1.431-1.369 1.4 1.4 0 011.365-1.435l4.403-.116c5.238-.151 10.62-.363 20.162-.771l10.119-.431c15.821-.657 24.619-.898 35.02-.898z" fill="#00160A"/></svg>