<svg viewBox="0 0 274 274" fill="none" xmlns="http://www.w3.org/2000/svg"><path fill="#fff" d="M0 0h274v274H0z"/><path fill-rule="evenodd" clip-rule="evenodd" d="M137.098 51.375C201.611 62.212 246.6 99.031 246.6 157.818c0 70.463-55.891-2.75-94.43 38.332-38.539 41.082-120.647 42.246-124.575-38.332-3.677-75.431 44.99-117.28 109.503-106.443z" fill="#5B60FD"/><path fill-rule="evenodd" clip-rule="evenodd" d="M104.121 165.286l17.065-22.074.392.311c2.52 1.981 4.519 3.287 5.996 3.917l.437.185c7.095 2.985 11.974 3.998 11.19 4.699l-.971.873c-6.271 5.661-14.857 13.892-25.759 24.695a9.351 9.351 0 01-5.678 2.916l-2.249.269c-22.067 2.612-36.225 2.837-41.412 1.688-1.084-.239-4.419.387-6.937 2.916-3.777 3.794-9.178 12.931-10.084 12.931-1.32 0-.077-6.052 3.727-18.157l.402-1.407c1.772-6.143 3.047-9.775 3.824-10.896.836-1.205 3.657.921 8.463 6.378l-.13.709a33.298 33.298 0 012.219-2.309l2.271-.272c8.023-.974 14.122-1.865 18.296-2.673l.44-.086c4.522-.896 10.688-2.434 18.498-4.613zM210.391 142.418l6.346 4.781a7.141 7.141 0 012.546 3.662l1.202 4.026a2.504 2.504 0 01-1.122 3.28l-2.241 1.663a2.5 2.5 0 01-3.577-1.64l-1.261-4.486s-5.347-1.625-6.059-7.988l4.166-3.298" fill="#fff"/><path fill-rule="evenodd" clip-rule="evenodd" d="M179.808 63.89c4.336.177 6.514 6.118 7.932 9.055.483 1-2.913 30.569-4.023 38.135-1.976 13.475-7.949 17.747-11.698 18.665 0 0 .225 15.319-1.346 19.132-3.477 8.443-47.494 2.776-51.795-11.335-2.941-9.646 7.987-10.771 12.089-16.587 7.517-10.659 7.907-20.579 16.005-27.676 3.068-3.363 6.631-6.738 9.704-10.797l1.25-1.645c7.816-10.239 13.767-17.032 21.475-16.957l.407.01z" fill="#fff"/><path fill-rule="evenodd" clip-rule="evenodd" d="M158.068 89.52c-.718.346-1.768.454-2.143-.25-1.176-2.208-4.773-2.512-6.302-.531 1.468-.505 3.178-.986 4.49-.158.365.23.68.554.992.874.52.532 1.031 1.056 1.747 1.126.532.052 1.039-.172 1.544-.395.541-.24 1.08-.477 1.644-.371.626.118 1.066.616 1.505 1.114.438.497.876.994 1.5 1.115.511.099 1.024-.085 1.532-.266.569-.203 1.131-.404 1.678-.207.653.235.951.908 1.25 1.582.297.67.594 1.34 1.241 1.581.383.143.797.091 1.206.012l.405-.083c.955-.19 1.987-.207 2.86.223.751.369 1.342 1.134 1.391 1.95.019-.176.037-.352.052-.528l.151-.993a4.376 4.376 0 00-3.561-1.504c-.229.015-.457.049-.685.082-.439.064-.878.129-1.314.062-.662-.1-1.335-.664-1.223-1.324l.01-.072c.121-1.105-1.36-1.74-2.499-1.646-.242.02-.49.052-.739.084-.95.124-1.921.25-2.666-.296-.289-.211-.511-.506-.732-.799-.308-.409-.612-.812-1.086-.972-.523-.175-1.055.009-1.571.254l-.172.083-.505.253zm-8.259 7.69c.495.662 1.512.29 2.298.004l.04-.015c2.107-.768 4.644-.169 6.184 1.46.844.894 2.092.645 3.385.386 1.08-.216 2.191-.438 3.122-.005.435.203.84.545 1.236.881.725.615 1.424 1.207 2.237.872 1.543-.635 3.436-.296 4.675.816l-.004.35-.006.773c-1.231-1.233-3.225-1.632-4.836-.968-.813.335-1.512-.257-2.237-.873-.397-.335-.801-.678-1.236-.88-.931-.434-2.042-.211-3.122.005-1.293.258-2.542.508-3.386-.386-1.508-1.597-3.975-2.204-6.056-1.505l-.415.149c-.741.262-1.606.501-2.05-.094-1.399-1.879-4.209-2.537-6.298-1.476l.27-1.02.123-.056c2.062-.908 4.726-.231 6.076 1.581zm-4.795 8.375c-.774.317-1.776.727-2.296.084-.946-1.173-3.107-1.259-6.484-.257.258.175.924.158 1.745.137 1.547-.041 3.645-.095 4.606 1.096.466.578 1.321.306 2.051.016l.41-.165c2.052-.779 4.54-.266 6.109 1.272.878.86 2.116.563 3.398.255 1.071-.258 2.172-.522 3.119-.125.443.185.86.512 1.269.833.749.586 1.469 1.151 2.269.785l.111-.049c.907-.382 2.649.262 4.227.847 1.148.425 2.21.818 2.802.761-3.659-2.153-5.995-2.998-7.006-2.535l-.08.034c-.768.294-1.466-.253-2.189-.82-.409-.32-.826-.647-1.269-.832-.947-.398-2.048-.133-3.119.124-1.282.308-2.521.606-3.398-.255-1.601-1.569-4.16-2.071-6.235-1.222l-.04.016zm7.173 35.541c.928.596 2.131 1.367 2.99.944 1.516-.748 4.249-.084 8.199 1.991l.38.202c-.387.071-1.256-.196-2.328-.525-2.019-.621-4.756-1.463-6.345-.679-.771.38-1.819-.203-2.697-.757l-.491-.312c-2.318-1.423-5.449-1.903-7.876-1.232-.778.324-1.861-.055-3.052-.472-.81-.283-1.669-.584-2.516-.693-1.043-.134-1.581-.053-2.053.017-.473.071-.88.132-1.666-.044-.608-.135-1.579-.56-2.913-1.274-2.366-1.135-6.557-.998-8.763-.208l-.119.041c-2.359.779-2.339-.075.032-.964l.18-.066.142-.049c2.52-.839 7.188-.748 9.631.819l.048.031c.929.596 2.131 1.368 2.99.944l.063-.028c.601-.247 2.006-.243 2.442-.214l.08.007c1.467.162 1.786.295 2.134.549l.25.189.143.055c.53.207 1.092.451 1.686.733.246-.022.529-.087.863-.206l.142-.049c2.52-.84 5.933-.348 8.376 1.219l.048.031zm-10.92-28.151c.55.644 1.61.233 2.429-.083l.042-.017c2.196-.848 4.903-.347 6.596 1.223.929.86 2.239.562 3.595.255 1.133-.258 2.298-.522 3.3-.125.469.185.91.512 1.342.833.766.567 1.503 1.113 2.316.819l.085-.034c1.07-.463 3.54.382 7.412 2.535-.626.057-1.75-.336-2.965-.761-1.67-.584-3.512-1.229-4.471-.847l-.118.049c-.846.366-1.608-.198-2.4-.785-.433-.32-.874-.647-1.342-.833-1.002-.397-2.168-.133-3.301.125-1.356.308-2.666.605-3.594-.255-1.66-1.538-4.293-2.051-6.464-1.272l-.433.165c-.772.291-1.677.562-2.17-.016-1.016-1.191-3.236-1.136-4.872-1.096-.869.021-1.573.039-1.846-.137 3.572-1.002 5.859-.916 6.859.257zm-.557 7.953c-.942.317-2.162.728-2.794.084-1.151-1.173-3.782-1.259-7.892-.257.314.175 1.124.158 2.124.137 1.883-.04 4.436-.095 5.605 1.096.568.578 1.609.306 2.498.016l.498-.165c2.497-.779 5.527-.266 7.436 1.272 1.068.86 2.575.563 4.136.255 1.303-.258 2.644-.522 3.797-.125.539.186 1.046.512 1.544.833.911.586 1.788 1.151 2.762.785l.135-.049c1.104-.382 3.224.262 5.145.847 1.397.425 2.69.818 3.41.761-4.454-2.153-7.296-2.998-8.527-2.535l-.098.034c-.935.294-1.784-.253-2.664-.82-.498-.32-1.005-.647-1.544-.832-1.153-.398-2.494-.133-3.798.124-1.56.308-3.067.606-4.135-.255-1.948-1.569-5.063-2.071-7.589-1.222l-.049.016zm-7.315 6.294c.709.644 2.077.234 3.134-.083l.054-.017c2.833-.848 6.326-.347 8.511 1.223 1.198.86 2.888.563 4.638.255 1.462-.258 2.966-.522 4.259-.125.604.186 1.173.512 1.731.833.988.567 1.94 1.113 2.988.819l.11-.034c1.381-.463 4.568.382 9.564 2.535-.808.058-2.258-.336-3.825-.761-2.155-.584-4.532-1.229-5.77-.846l-.152.048c-1.092.367-2.075-.198-3.097-.785-.558-.32-1.127-.647-1.732-.833-1.293-.397-2.796-.132-4.258.125-1.75.308-3.44.605-4.638-.255-2.142-1.538-5.539-2.051-8.34-1.272l-.559.165c-.996.291-2.164.562-2.801-.016-1.311-1.191-4.174-1.136-6.286-1.096-1.121.021-2.03.039-2.382-.137 4.609-1.001 7.56-.916 8.851.257zm-.155 5.396c-1.056.317-2.424.727-3.133.084-1.291-1.173-4.242-1.259-8.851-.257.352.175 1.261.158 2.382.137 2.112-.041 4.975-.095 6.286 1.096.637.578 1.805.306 2.801.016l.559-.165c2.62-.729 5.762-.327 7.91.987.658.526 1.804.46 3.064.387.856-.049 1.765-.101 2.609.028 1.04.159 1.534.384 1.969.582.435.199.81.369 1.614.417.932.055 3.151-.422 3.151-.422 2.587-.439 6.578.848 8.481 2.215l.103.072c2.103 1.434 2.279.531.08-1.048l-.123-.086c-2.191-1.502-6.704-2.7-9.484-1.867l-.055.016c-1.056.317-2.425.727-3.133.084-.495-.449-2.109-.886-2.421-.939-1.645-.281-1.868-.193-2.368.003l-.127.05-.152.013a26.33 26.33 0 00-1.823.239 3.496 3.496 0 01-.773-.436l-.123-.086c-2.191-1.501-5.607-1.969-8.388-1.136l-.055.016z" fill="#FFB61D"/><path fill-rule="evenodd" clip-rule="evenodd" d="M178.409 68.338c6.164.022 11.028 5.25 10.613 11.406 0 0-7.188 31.266-3.545 42.38 1.409 4.299 21.757 17.678 20.897 19.053l-2.871 6.879c-1.02 1.629-32.252-19.261-32.252-19.261-2.996-2.379-3.553-49.666-3.553-49.666-.059-5.955 4.76-10.812 10.711-10.79z" fill="#fff"/><path d="M210.76 142.418l-3.67 7.557-.073.202c-.306.783-1.473 1.263-1.623 1.301h-.022l-2.168-1.283c-.248-.208-.384-1.378-.121-2.467l.061-.228s1.719-6.036 3.142-7.56c.83-.889 5.624 0 4.474 2.478z" fill="#fff"/><path fill-rule="evenodd" clip-rule="evenodd" d="M158.474 212.111h-8.762s10.283-26.697 10.283-33.703c0-2.173-8.083 1.101-6.911-2.173 1.613-4.502 7.192-12.552 5.818-16.593-1.437-4.226-6.798-5.757-11.466-7.47-.895-.328 15.424.805 19.9-2.755 5.904-4.697 1.11-15.068 2.696-11.411 1.913 4.412 14.345 15.481 11.88 27.467-2.4 11.677-23.438 46.638-23.438 46.638z" fill="#fff"/><path fill-rule="evenodd" clip-rule="evenodd" d="M155.436 217.259l-.794-.264a.1.1 0 01-.017-.183l.763-.414v-.965a.1.1 0 01.166-.075l.631.554 1.036-.545c.088-.046.182.05.134.136l-.591 1.079 1.151 1.202c.07.073-.002.193-.1.165l-1.583-.457-.609 1.073c-.051.089-.187.053-.187-.05v-1.256z" fill="#FFB61D"/><path fill-rule="evenodd" clip-rule="evenodd" d="M133.223 158.339c-.381.396-.757.796-1.134 1.195a75.071 75.071 0 01-2.166 2.24c-1.39 1.358-2.792 2.709-4.267 3.972a123.75 123.75 0 01-5.619 4.545c-2.169 1.65-4.39 3.233-6.62 4.799l-.355.25c-1.138.808-2.275 1.614-3.737 1.863-.417.071-.808.281-1.201.491-.313.168-.627.337-.958.437-2.28.691-4.572 1.349-6.878 1.947-1.416.366-2.862.628-4.304.879-.898.156-6.04.974-9.46 1.47-3.42.496-14.733.496-17.557.438-1.585-.033-3.17-.088-4.754-.149l-.081-.003c-.323-.011-.666-.024-.947-.151-1.555-.705-2.76.063-3.979.841l-.088.056c-1.602 1.02-2.582 2.555-3.55 4.127-.515.835-1.06 1.651-1.605 2.467v.001a73.981 73.981 0 00-1.722 2.658c-.726 1.194-1.374 2.436-2.02 3.678l-.35.669c-.855 1.633-2.138 2.582-3.979 2.934-.915.174-1.698-.097-2.48-.368a11.85 11.85 0 00-.875-.279c-.58-.151-1.046-1.715-.84-2.334l1.81-5.419.001-.001v-.001c1.262-3.775 2.524-7.549 3.775-11.328.873-2.639 1.726-5.284 2.58-7.929v-.005l.723-2.238c.115-.355.224-.713.333-1.071.181-.593.362-1.186.57-1.77.067-.191.348-.427.539-.434 1.38-.056 2.705.282 3.964.799 2.38.977 4.211 2.624 5.556 4.817.356.581.978.79 1.763.652.379-.067.76-.117 1.143-.168.583-.077 1.166-.154 1.735-.289 1.267-.301 2.549-.311 3.83-.321.826-.007 1.651-.013 2.472-.097.564-.058 1.131-.091 1.698-.124.757-.044 1.514-.088 2.263-.191 1.363-.187 2.719-.424 4.075-.66l.005-.001a164.185 164.185 0 013.486-.579h.002v-.001h.001a87.274 87.274 0 003.011-.506c1.279-.246 2.548-.545 3.815-.844l.458-.108c1.342-.316 2.68-.642 4.02-.967.56-.137 1.122-.274 1.683-.409l.264-.067-.05-.027-.041-.021c-.067-.035-.133-.069-.197-.108-.194-.12-.395-.234-.596-.347-.458-.26-.915-.519-1.305-.857-.876-.76-.577-2.023.537-2.36.849-.256 1.724-.513 2.6-.572 1.182-.08 2.258-.472 3.335-.865.433-.157.866-.315 1.306-.453 1.038-.324 1.661-.936 2.182-1.87.252-.451.619-.833.989-1.216.26-.27.521-.541.743-.838a145.391 145.391 0 003.351-4.672c.231-.336.417-.702.602-1.07h.001v-.001c.142-.28.284-.56.446-.827.381-.627.77-1.262 1.241-1.82l.062-.074c1.08-1.281 2.164-2.566 3.339-3.757.641-.65 1.348-1.234 2.055-1.818.334-.276.668-.551.996-.834.165-.143.323-.298.462-.466.239-.288.337-.528-.023-.869l-.282-.267c-.94-.883-1.888-1.774-2.401-2.996l-.163-.385c-.412-.972-.828-1.954-1.062-2.973-.316-1.371-.189-2.767.22-4.149.572-1.933 1.77-3.398 3.391-4.449 1.001-.649 2.054-1.216 3.107-1.784.78-.42 1.561-.841 2.321-1.295.587-.35 1.09-.861 1.58-1.359l.14-.143c2.206-2.232 3.744-4.933 5.275-7.624l.489-.857c1.481-2.583 2.809-5.256 4.133-7.925.382-.769.709-1.564 1.036-2.36a42.16 42.16 0 01.904-2.093c.259-.541.577-1.054.896-1.566.234-.377.468-.754.679-1.143.226-.417.433-.847.639-1.276.313-.65.625-1.3 1.005-1.907.272-.434.666-.792 1.059-1.15.165-.149.33-.299.485-.454.194-.193.391-.382.588-.572l.001-.001c.205-.198.411-.396.612-.597.356-.356.708-.717 1.049-1.087.652-.709 1.309-1.414 1.965-2.12h.001l.002-.002h.001l.001-.002.001-.001.001-.001.001-.001c1.625-1.747 3.25-3.493 4.821-5.287 1.841-2.102 3.593-4.285 5.313-6.488.684-.875 1.301-1.804 1.917-2.733.275-.413.549-.827.83-1.236.015-.023.028-.048.041-.073h.001a.451.451 0 01.063-.101c.445-.49.886-.985 1.326-1.48l.001-.001c1.035-1.163 2.07-2.326 3.165-3.429 1.625-1.637 3.486-2.994 5.506-4.124.308-.172.605-.368.901-.563.468-.308.934-.616 1.441-.83l.177-.075.185-.08c.968-.415 1.983-.852 2.983-.872 2.109-.043 4.302-.02 6.072 1.471.336.283.425.216.457-.162.03-.36.091-.732.153-1.104.142-.865.285-1.732.036-2.465-.15-.443-.203-.89-.255-1.333-.059-.501-.117-.998-.316-1.478-.664-1.604-1.256-3.238-1.849-4.872l-.267-.738a7.374 7.374 0 01-.405-1.582c-.05-.383-.066-.77-.083-1.158-.017-.398-.033-.796-.086-1.189-.186-1.398.299-2.627.786-3.86.089-.226.178-.45.262-.677 1.035-2.76 2.972-4.848 5.064-6.808 1.802-1.688 4.785-2.218 7.198-2.635.892-.153 7.148-.3 10.452-.378a173.25 173.25 0 002.002-.052c.651-.034 1.093-.337 1.534-.662.911-.672 1.145-1.714 1.375-2.739l.001-.004.001-.003.001-.004c.021-.097.043-.195.066-.291l.016-.072c.059-.268.101-.457.505-.443 1.349.045 2.043.926 2.704 1.933.744 1.133 1.346 2.315 1.553 3.667.252 1.645.117 3.173-1.053 4.528-.952 1.102-2.06 1.944-3.311 2.65-.166.095-.271.591-.179.804.943 2.174 1.013 4.467.921 6.769-.022.558-.113 1.114-.203 1.67-.086.527-.172 1.054-.2 1.583-.08 1.519.231 2.98.84 4.392.413.959.123 1.866-.57 2.62a2.787 2.787 0 01-.414.343c-.206.15-.41.3-.526.503a3.802 3.802 0 00-.49 1.538c-.033.403.011.81.054 1.22.027.254.054.509.063.763.034.977-.338 1.813-.839 2.647-.908 1.51-2.105 2.621-3.843 2.985-1.49.311-3.036.33-4.474-.16-1.632-.556-3.224-1.269-4.76-2.056-.437-.224-.782-.626-1.127-1.028a9.877 9.877 0 00-.471-.523c-.241-.242-.362-.312-.682.026-1.142 1.21-1.972 2.584-2.643 4.1-.37.837-.13 1.525.126 2.258l.03.087.073.209c.354 1.014.707 2.024.679 3.135-.013.548-.002 1.099.008 1.648v.005c.017.872.034 1.743-.045 2.605-.085.923-.292 1.835-.499 2.747-.083.367-.167.733-.242 1.1-.08.39-.158.781-.237 1.172-.237 1.18-.474 2.362-.757 3.532-.131.542-.311 1.071-.491 1.6-.147.434-.295.867-.415 1.308-.14.51-.282 1.02-.424 1.53v.002c-.551 1.983-1.102 3.967-1.548 5.974-.381 1.718-.602 3.487-.73 5.245-.08 1.099-.068 2.205-.056 3.311.007.612.013 1.223.004 1.834-.006.461-.03.923-.054 1.384v.001a28.732 28.732 0 00-.056 1.76l.002.323.003.379v.001c.01 1.549.021 3.101.157 4.64.135 1.536.427 3.066.763 4.573.277 1.238 1.126 2.194 1.968 3.092.439.467.925.888 1.411 1.31.34.295.681.59 1.005.901.222.213.421.45.621.687h.001v.001c.248.295.496.589.786.835.946.805 1.908 1.59 2.87 2.376l.002.002c.729.595 1.458 1.19 2.18 1.794.648.542 1.287 1.095 1.925 1.649.646.559 1.291 1.119 1.946 1.666.896.748 1.805 1.486 2.753 2.164.447.32.915.609 1.383.899.483.3.967.599 1.428.931.552.399.981.175 1.407-.049.147-.076.294-.153.445-.204 1.229-.415 2.201-.259 2.662.923.092.237.233.45.375.664.258.389.519.784.497 1.333-.008.173.364.378.682.554h.001c.076.042.148.082.212.12a152.03 152.03 0 002.832 1.617c.202.114.411.217.62.321.403.199.804.398 1.154.666.356.273.679.589 1.002.905.324.317.648.634 1.005.907.736.563 1.153 1.338 1.567 2.108.152.283.304.565.471.836.462.748.728 1.666.882 2.543.207 1.182.291 2.398.286 3.6-.002.501-.307 1.04-.586 1.493-.301.487-.753.557-1.188.086-.036-.039-.086-.064-.136-.09h-.001c-.023-.012-.046-.023-.067-.036l-.01.088c-.007.064-.013.128-.022.191-.028.202-.05.405-.072.609-.055.501-.109 1.002-.25 1.477-.094.319-.503.74-.787.754-.218.01-.447-.193-.674-.393a3.847 3.847 0 00-.272-.227c-.087-.065-.161-.149-.234-.231h-.001l-.023-.026-.035-.041-.033-.043-.037-.049-.022-.031a2.026 2.026 0 00-.055-.074l-.04.087c-.03.063-.059.127-.091.189a3.876 3.876 0 00-.113.253c-.08.194-.16.387-.299.519-.536.51-1.256.311-1.477-.405-.115-.372-.21-.751-.305-1.129v-.001c-.133-.524-.265-1.048-.448-1.554-.075-.208-.137-.421-.2-.633v-.001c-.183-.623-.366-1.247-.879-1.772-.369-.377-.595-.898-.82-1.417a11.588 11.588 0 00-.271-.596c-.575-1.159-1.526-1.917-2.625-2.528a5.385 5.385 0 01-.857-.57c-.576-.49-.975-.223-1.326.275-.579.824-1.54 1.127-2.433.653-1.368-.727-2.486-1.682-2.858-3.318-.069-.302-.516-.569-.843-.754-.986-.556-1.977-1.101-2.969-1.647-1.644-.904-3.289-1.809-4.905-2.76-2.017-1.187-3.981-2.463-5.944-3.739v-.001h-.002v-.001l-.592-.384c-3.095-2.01-6.178-4.037-9.262-6.065l-.002-.002-.006-.003-.087-.058-1.719-1.13c-.676-.444-1.347-.895-2.019-1.346v-.001h-.001l-.001-.001h-.001l-.003-.003c-.468-.314-.935-.629-1.405-.941a4.698 4.698 0 00-.591-.334c-.608-.287-.787-.183-.835.469l-.001.005V130.23l-.038 2.746v.003l-.108 7.564c-.012.805.41 1.422.825 2.031.085.123.169.246.249.37a403.398 403.398 0 004.475 6.765c.414.613.843 1.217 1.272 1.821v.001h.001v.001l.001.001v.001c.649.912 1.297 1.825 1.893 2.771.303.48.483 1.037.664 1.593.079.245.158.489.248.727.041.108.084.216.127.324v.001c.116.291.232.581.305.882.589 2.437.323 4.854-.259 7.246l-.116.481c-.362 1.493-.725 2.993-1.252 4.429-.423 1.152-.951 2.265-1.479 3.378-.254.536-.509 1.072-.752 1.613-.423.944-.833 1.894-1.238 2.846a732.148 732.148 0 00-2.044 4.85c-.243.583-.478 1.17-.713 1.756l-.001.001-.001.003-.001.002-.001.002v.002l-.001.003-.001.002c-.474 1.184-.949 2.368-1.488 3.522-.776 1.661-1.639 3.282-2.5 4.903h-.001v.001l-.218.409-.153.289c-.539 1.015-1.091 2.023-1.643 3.031l-.002.003v.002h-.001c-.533.974-1.067 1.948-1.588 2.929-.476.896-.94 1.798-1.403 2.701l-.001.001c-.495.964-.99 1.929-1.501 2.885a109.767 109.767 0 01-2.27 4.026c-.651 1.103-.463 1.618.291 2.634.818 1.103 2.088 1.471 3.348 1.759 3.456.789 6.92 1.546 10.383 2.303l.174.038c.349.077.702.133 1.055.19.397.064.794.128 1.184.22 1.951.456 2.93 1.891 3.452 3.671.334 1.139.432 2.362-.475 3.308-.343.357-.968.623-1.466.625-6.408.021-12.816.025-19.223.028h-.017c-4.041.003-8.082.005-12.124.012-.471 0-.505-.141-.54-.555a14.307 14.307 0 00-.187-1.261c-.109-.617-.219-1.232-.206-1.846.066-2.949 1.099-5.59 2.907-7.909.13-.167.342-.278.551-.387.232-.122.461-.242.571-.435.527-.932.979-1.924 1.325-2.938.555-1.625 1.107-3.265 1.463-4.94.163-.77.399-1.516.636-2.263.294-.928.588-1.857.744-2.834.164-1.032.593-2.026 1.019-3.014.132-.306.264-.612.388-.918.421-1.044.857-2.082 1.292-3.12h.001v-.002h.001v-.003h.001c.677-1.615 1.355-3.231 1.98-4.866.446-1.165.816-2.36 1.185-3.555h.001c.211-.682.422-1.364.647-2.041.476-1.432.96-2.863 1.506-4.27.123-.315.054-.321-.118-.334l-.049-.005a.601.601 0 01-.058-.006c-2.303-.306-4.572-.279-6.72.746-.471.225-.802.178-1.114-.213-.318-.4-.152-.691.129-1.058 1.679-2.186 2.722-4.676 3.522-7.303.084-.275.17-.549.256-.824v-.001c.52-1.655 1.038-3.305 1.024-5.065-.011-1.332-.34-2.528-1.256-3.643a14.823 14.823 0 01-.57-.757c-.55-.763-1.092-1.515-2.036-1.909a47.134 47.134 0 01-1.42-.629c-.49-.223-.98-.447-1.478-.653-.378-.156-.756-.314-1.133-.472-1.489-.623-2.978-1.246-4.497-1.784-.922-.327-1.877-.561-2.833-.795-.434-.106-.868-.212-1.299-.327a5.202 5.202 0 01-.251-.076h-.001l-.001-.001c-.067-.021-.133-.042-.2-.061-.982-.28-1.839-.232-2.506.715-.292.416-.694.754-1.115 1.109-.083.07-.168.141-.252.214a256.186 256.186 0 00-4.611 4.692zm36.169-27.582v-.001c.085-.423.17-.846.215-1.273l.013-.12c.099-.916.199-1.845.134-2.756-.034-.472-.159-.936-.285-1.401a9.379 9.379 0 01-.258-1.137 141.228 141.228 0 01-.731-6.051c-.17-1.758-.284-3.522-.397-5.285l-.048-.741c-.114-1.761-.22-3.522-.289-5.284-.066-1.69-.099-3.381-.132-5.072v-.001l-.013-.71c-.003-.107.034-.213.07-.321.024-.068.047-.137.06-.206.016-.078.035-.157.053-.235v-.001c.052-.217.105-.436.086-.648a5.604 5.604 0 00-.126-.696c-.071-.314-.142-.626-.134-.938.052-2.066.145-4.13.239-6.195l.041-.915c.02-.444.077-.888.144-1.327.191-1.241.39-2.48.588-3.72l.14-.872c.016-.1.038-.2.059-.301l.012-.054.009-.043.009-.042.02.155c.016.11.032.222.034.333.046 2.322.089 4.643.132 6.965l.016.863.044 2.338c.035 1.855.071 3.709.1 5.563.019 1.228.035 2.456.05 3.684v.001c.027 2.233.055 4.467.107 6.7.04 1.665.146 3.332.293 4.991.109 1.218.267 2.432.425 3.645.051.385.101.769.149 1.154.068.538.142 1.075.216 1.613.13.939.259 1.878.356 2.821.123 1.197.7 2.167 1.529 2.935.605.56 1.288 1.038 1.97 1.515l.001.001h.001l.001.001.001.001c.268.187.536.375.8.568.553.404 1.103.812 1.654 1.22 1.381 1.024 2.763 2.048 4.183 3.015 1.268.865 2.574 1.675 3.879 2.485a193.455 193.455 0 013.692 2.334l.003.002.002.002.003.001c1.068.687 2.136 1.374 3.217 2.04l.204.126h.001c1.982 1.221 3.966 2.443 5.995 3.581.964.541 1.987.98 3.007 1.419h.001l.003.001.781.338c.152.067.501-.009.573-.13.17-.286.28-.609.389-.93h.001l.066-.192c.426-1.217.966-2.353 1.887-3.301.695-.715.597-.93-.368-1.336l-.158-.067-.005-.001c-.403-.169-.81-.339-1.176-.57a24.647 24.647 0 01-1.978-1.389l-1.697-1.312c-1.909-1.474-3.818-2.947-5.674-4.485-1.728-1.431-3.37-2.973-4.978-4.54-.224-.218-.45-.434-.677-.651-1.368-1.308-2.743-2.621-3.61-4.357a10.186 10.186 0 00-.395-.696c-.399-.665-.798-1.33-.739-2.203.036-.535-.036-1.077-.107-1.619-.026-.196-.052-.392-.072-.587-.056-.528-.123-1.055-.19-1.583-.136-1.078-.272-2.156-.317-3.238-.062-1.461-.048-2.925-.034-4.389v-.001c.006-.63.012-1.26.012-1.891 0-.148-.004-.296-.009-.444-.009-.324-.019-.649.017-.968.173-1.553.35-3.106.584-4.651l.134-.906c.218-1.48.436-2.962.796-4.407.314-1.26.7-2.502 1.086-3.744.306-.983.611-1.966.881-2.958.194-.714.408-1.422.622-2.131.535-1.774 1.071-3.549 1.298-5.404a9.88 9.88 0 01.254-1.21c.15-.59.3-1.178.279-1.762-.075-2.114-.664-4.15-1.257-6.182-.885-3.037-2.42-5.57-5.077-7.372-1.533-1.04-3.139-1.801-5.041-1.556-.689.088-1.372.23-2.055.373-.329.068-.657.137-.987.2-1.868.354-3.522 1.179-5.011 2.338a53.16 53.16 0 00-2.551 2.118c-.828.732-1.655 1.472-2.409 2.277-.702.75-1.354 1.544-2.006 2.34l-.427.518a298.772 298.772 0 00-3.334 4.095c-.481.603-.951 1.215-1.422 1.826a94.432 94.432 0 01-2.166 2.743 140.767 140.767 0 01-4.173 4.77 536.304 536.304 0 01-5.931 6.38c-.169.18-.364.337-.559.494-.234.188-.467.376-.654.603-1.44 1.737-2.795 3.55-3.758 5.596-.887 1.887-1.741 3.789-2.596 5.692h-.001v.002a406.668 406.668 0 01-2.328 5.117c-1.284 2.754-2.696 5.437-4.401 7.969l-.126.186c-.913 1.358-1.827 2.717-3.114 3.707-1.678 1.29-3.424 2.491-5.17 3.691l-.003.002-1.364.94c-1.473 1.021-2.638 2.309-3.211 4.005-.704 2.083-.344 4.152.638 6.05 1.21 2.337 3.123 4.123 5.078 5.825 2.168 1.888 4.688 3.243 7.407 4.114 3.494 1.119 7.009 2.205 10.705 2.523.967.082 1.93.209 2.893.336 1.074.141 2.147.283 3.226.363 2.384.178 4.78.277 7.171.29 1.075.006 2.151-.069 3.227-.143h.001v-.001h.002a70.139 70.139 0 012.046-.121c1.858-.073 3.617-.561 5.35-1.177 1.165-.414 2.242-.984 2.668-2.241.248-.732.371-1.516.472-2.287l.027-.198c.215-1.627.43-3.256.552-4.891.113-1.507.172-3.017.233-4.584v-.002c.023-.589.046-1.186.073-1.793.015-.196.027-.392.039-.588.027-.442.054-.884.114-1.322.049-.348.117-.693.186-1.037zm-61.966 45.387c.078.07.256.116.343.076.399-.182.805-.353 1.21-.524.99-.418 1.98-.835 2.872-1.407 1.592-1.019 3.145-2.099 4.698-3.179v-.001h.001a190.73 190.73 0 013.676-2.514c2.699-1.785 5.066-3.959 7.434-6.134.461-.424.922-.847 1.386-1.268.72-.653 1.397-1.354 2.073-2.054l.001-.001.439-.453c.805-.829 1.603-1.665 2.401-2.5l1.039-1.087.281-.293.466-.485.001-.001c.905-.94 1.809-1.88 2.686-2.846.104-.114-.026-.683-.144-.719-.497-.15-1.004-.273-1.509-.396h-.001v-.001c-.642-.156-1.283-.311-1.906-.523l-.317-.108c-2.577-.878-5.157-1.756-7.679-2.776a23.21 23.21 0 01-6.361-3.844c-.03-.025-.167.008-.182.044-.552 1.334-1.58 2.243-2.612 3.156-.235.208-.471.416-.7.63-1.083 1.005-2.158 2.035-3.107 3.164-.613.729-1.135 1.536-1.657 2.342-.191.296-.383.593-.579.885-.222.33-.456.656-.69.981-.575.798-1.15 1.596-1.544 2.476-.878 1.961-2.239 3.524-3.66 5.047-1.398 1.496-3.301 2.054-5.181 2.604l-.524.154c-.69.206-1.4.344-2.111.482h-.001c-.39.076-.78.152-1.167.239-.098.022-.186.088-.274.154-.041.031-.082.061-.124.087.045.055.092.125.138.195.1.15.2.301.29.295.907-.064 1.585.402 2.252.861.177.122.354.244.535.354.878.541 1.741 1.124 2.253 2.131.332.653.778 1.249 1.223 1.844h.001c.136.183.273.365.406.549.547.756 1.119 1.493 1.742 2.297l.132.17.259.241.199.186.008.008c.526.49 1.052.98 1.585 1.462zm44.812-22.639c.556.296 1.148.521 1.74.746 1.166.444 2.333.888 3.224 1.872.27.298.582.559.893.82h.001v.001h.001c.202.169.404.338.595.518.635.596.854 1.394 1.072 2.187l.097.346c.599 2.084.463 4.241-.063 6.24l-.102.388c-.7 2.671-1.411 5.381-2.899 7.778-.173.278-.263.427.211.44 1.276.037 2.553.085 3.829.133h.004c1.405.052 2.809.105 4.214.143.882.023 1.764.018 2.647.012.609-.004 1.217-.008 1.826-.002 1.593.015 3.141-.215 4.59-.891l.178-.082c.495-.226 1.056-.482 1.28-.889.569-1.036.973-2.176 1.341-3.307.538-1.656 1.071-3.323 1.446-5.02.32-1.449.482-2.944.583-4.428.03-.446-.046-.898-.122-1.352a7.517 7.517 0 01-.129-1.081c-.03-1.413-.699-2.563-1.368-3.714l-.118-.202a5.683 5.683 0 00-.556-.755 7.598 7.598 0 01-.448-.584c-1.075-1.607-2.145-3.217-3.216-4.828-.756-1.137-1.512-2.275-2.269-3.411-.073-.109-.167-.204-.261-.299-.043-.044-.087-.088-.129-.134-.042.064-.091.127-.14.19-.108.137-.216.274-.248.427-.074.355-.122.715-.171 1.076-.041.307-.082.613-.139.917-.33 1.762-1.173 3.115-2.833 3.986-2.289 1.201-4.748 1.714-7.262 2.003-1.449.166-2.925.193-4.385.145-.877-.028-1.752-.136-2.627-.245-.474-.058-.948-.117-1.422-.163-.128-.012-.261.026-.394.065l-.041.012-.036.01c-.035.01-.071.019-.106.026l.112.091c.093.077.187.153.284.224l.011.007.009.006.007.004a.358.358 0 00.046.022c.045.022.104.05.187.109.111.046.224.09.337.133.245.094.49.188.719.31zm30.256-112.163c-.925 1.353-1.484 2.895-1.765 4.517-.287 1.648-.327 3.315.156 4.923.285.95.608 1.888.931 2.827v.002c.374 1.086.747 2.171 1.062 3.274.195.68.635 1 1.122 1.171 2.298.81 4.794-.175 6.221-2.287.387-.573.164-.809-.23-1.21a10.065 10.065 0 01-1.395-1.822c-.593-.973-.342-1.965.336-2.75.679-.787 1.698-.961 2.646-.632 1.084.377 1.864 1.205 2.42 2.22.026.047.044.099.063.15l.027.072a.626.626 0 01.019-.039.665.665 0 00.037-.084c.081-.249.16-.5.239-.75v-.001l.001-.002v-.001c.415-1.323.832-2.65 1.671-3.778.654-.88 1.358-1.757 2.189-2.46.621-.524 1.387-.89 2.14-1.248l.121-.058.121-.057.086-.042c.257-.124.513-.25.769-.377h.001c1.077-.532 2.158-1.066 3.293-1.422.19-.06.286-.089.331-.102l.034-.01h-.006c-.06.014-.444.1 3.305-1.253 5.235-1.888 2.542-7.835.992-9.143-.115-.097-.299-.202-.423-.175-.111.024-.253.218-.265.348-.116 1.3-2.021 3.318-6.547 3.004-3.098-.214-3.165-.202-3.314-.175-.068.013-.153.029-.561.027-.976-.005-4.354.31-5.038.503-.248.07-.572.138-.953.218h-.001c-1.82.38-4.941 1.032-7.302 3.505-.262.318-.53.63-.799.944-.606.705-1.213 1.41-1.734 2.173zm12.378 12.908c0 .657-.131 1.304-.263 1.951-.063.311-.127.622-.175.934-.008.05-.034.096-.059.142a.917.917 0 00-.034.065l-.017-.063c-.012-.045-.025-.09-.033-.135a76.67 76.67 0 01-.172-.958c-.126-.722-.252-1.445-.425-2.156-.207-.853-.437-1.722-.819-2.504-.442-.905-2.294-1.332-3.205-.857-.519.27-.768.919-.431 1.39.318.446.709.902 1.174 1.167.764.435 1.012 1.162 1.074 1.874.117 1.338-1.288 3.221-2.654 3.56-1.241.307-2.506.521-3.77.735-.298.05-.597.101-.895.153l-.091.015c-.398.066-.714.118-.588.701.342 1.582.454 3.176.167 4.786-.018.097.16.25.273.347.145.124.297.24.449.357.279.214.558.427.789.685.38.423.734.869 1.088 1.315.243.306.486.613.737.912.066.078.33.11.393.05.323-.308.637-.625.951-.942h.001v-.001c.368-.37.735-.742 1.116-1.098a93.197 93.197 0 012.821-2.526c.124-.107.295-.159.465-.211.079-.025.158-.049.232-.078a16.93 16.93 0 00-.092.215c-.083.196-.165.392-.263.58-.017.034-.067.047-.118.06a.31.31 0 00-.121.051l-.047.04c-.184.158-.319.273.089.468.433.206.833.479 1.234.752.167.114.335.228.504.338 2.615 1.682 5.431 2.471 8.549 1.96 1.763-.289 2.973-1.227 3.511-2.962.514-1.662.301-2.146-1.288-2.814l-.162-.068c-.838-.348-1.67-.694-1.89-1.72-.09-.423.691-.878.863-.482l.002.003.001.004c.169.774.757 1.042 1.377 1.32 1.139.514 1.279.442 1.279-.728 0-1.532 0-1.532 1.343-2.009.778-.276.904-.546.55-1.302-.534-1.142-.883-2.305-.735-3.595.182-1.591.334-3.187.434-4.784.065-1.027.126-2.078-.021-3.087-.094-.646-.325-1.272-.556-1.899V44.2c-.099-.27-.198-.538-.286-.808-.208-.637-.708-.893-1.361-.657a95.82 95.82 0 01-1.229.43c-1.143.395-2.287.79-3.377 1.3-1.147.536-2.308 1.201-3.201 2.078-.801.787-3.088 4.754-3.088 7.707zm-94.225 123.943l1.453-.322c1.053-.233 2.105-.466 3.155-.709a1.66 1.66 0 00.433-.191l.032-.017.037-.02c.042-.023.085-.046.128-.067-.055-.033-.112-.064-.169-.096a3.832 3.832 0 01-.384-.236 2.374 2.374 0 01-.357-.352l-.006-.007c-.315-.356-.634-.71-.954-1.063-.778-.861-1.557-1.721-2.268-2.635-.703-.903-1.262-1.927-1.814-2.937l-.013-.025c-.272-.498-.58-.708-1.103-.525-2.222.775-4.522 1.199-6.823 1.623-1.2.221-2.4.442-3.59.713-1.948.444-11.757 2.131-12.612 2.192-.415.03-.831.072-1.247.114-.809.083-1.617.165-2.424.156-2.064-.024-4.086.199-6.107.591-.637.124-1.283.202-1.93.28-.738.09-1.475.179-2.198.336-2.33.504-3.11 2.493-2.51 4.436.115.373.527.794.897.925 1.684.596 3.448.751 5.231.765.918.007 1.836.049 2.754.092h.001l1.05.047c1.319.053 2.637.108 3.955.163l3.073.128c.072.003.145.002.218 0 .073-.001.146-.002.22.001.359.015.72.04 1.08.064.788.054 1.576.108 2.358.059 1.226-.076 2.448-.22 3.669-.365h.002v-.001h.005c.567-.067 1.133-.134 1.7-.195.349-.037.698-.067 1.047-.097a29.93 29.93 0 001.895-.205l.316-.048c1.603-.243 3.208-.487 4.79-.836 1.227-.271 2.447-.581 3.693-.897a183.67 183.67 0 012.793-.694l.063-.018.1-.029.002-.001c.119-.035.238-.07.359-.097zm55.589 33.783a69.692 69.692 0 002.161-3.323 88.603 88.603 0 001.806-3.119c.526-.938 1.073-1.864 1.619-2.791h.001v-.001c1.268-2.15 2.537-4.301 3.555-6.596.586-1.321 1.266-2.601 1.945-3.882l.001-.001c.323-.61.647-1.22.961-1.834l.223-.434.092-.177.134-.257c.414-.791.827-1.582 1.182-2.398.268-.618.503-1.251.738-1.885.362-.973.723-1.945 1.202-2.855.771-1.463 1.282-3.008 1.794-4.555.166-.501.332-1.003.507-1.503.027-.077.045-.158.062-.239l.025-.113a.83.83 0 01-.053.01l-.038.007-.032.005-.001.001a2.232 2.232 0 00-.27.057c-.175.052-.35.115-.524.179h-.001c-.363.132-.725.264-1.095.293a52.634 52.634 0 01-4.166.155c-.859 0-1.717-.034-2.576-.068h-.002a92.034 92.034 0 00-1.663-.056c-.103-.003-.264.126-.305.231l-.153.385v.001a57.18 57.18 0 00-.997 2.641 501.346 501.346 0 00-2.212 6.676c-.918 2.83-2.049 5.562-3.295 8.272a35.658 35.658 0 00-2.563 7.944c-.256 1.285-.633 2.548-1.011 3.808v.001c-.091.304-.182.608-.271.912-.28.953-.588 1.899-.897 2.844v.001l-.001.003-.004.012-.054.165-.12.367-.154.477c-.253.783-.031 1.514.585 1.61.686.106 1.395.067 2.166.019.701-.098 1.303-.42 1.699-.989zm-100.84-26.925c.762-1.252 1.547-2.386 3.095-2.725.575-.125.606-.425.225-.906-.083-.105-.171-.21-.26-.316-.318-.379-.643-.766-.78-1.205-.148-.475-.12-1.012-.091-1.54.007-.135.015-.27.019-.404.05-1.593.5-2.953 2.078-3.727.468-.23.75-.575.28-1.253-1.058-1.526-2.46-2.607-4.007-3.542-.606-.367-1.164-.149-1.405.491l-.316.835c-.335.879-.67 1.757-.967 2.649-.326.979-.637 1.963-.947 2.948a181.172 181.172 0 01-1 3.11 68.009 68.009 0 00-.79 2.578c-.454 1.559-.91 3.119-1.567 4.624-1.514 3.466-2.739 7.05-3.318 10.817-.03.199.012.54.13.6.18.092.485.058.681-.038.327-.159.67-.359.9-.632a31.58 31.58 0 002.073-2.786c.57-.911 1.14-1.821 1.712-2.731 1.43-2.275 2.86-4.551 4.256-6.847zm107.2 29.523l-.415-.103c-1.268-.308-2.528-.615-3.263-1.926-.347-.618-.65-.571-1 .108-.304.589-.679 1.106-1.278 1.413a8.029 8.029 0 01-.995.415c-1.679.596-3.313.671-4.785-.533-.718-.586-.952-.533-1.512.197-.906 1.182-1.37 2.559-1.832 3.93l-.04.117c-.498 1.477-.228 1.786 1.342 1.786h28.152c.059 0 .12.005.181.01h.001c.141.012.282.024.393-.027.145-.067.338-.382.314-.409-.104-.113-.205-.233-.306-.353-.31-.368-.624-.741-1.022-.943-.794-.403-1.684-.641-2.556-.862a595.445 595.445 0 00-9.809-2.384l-.491-.139c-.359-.103-.718-.206-1.079-.297zm55.055-54.091c.033.123.18.216.328.308v.001h.001c.068.042.135.085.192.13.037-.052.083-.104.129-.156.1-.113.201-.226.207-.343l.01-.186.018-.287c.041-.615.083-1.238-.039-1.822-.238-1.144-.611-2.27-1.036-3.36-.106-.273.021-.403.139-.525.087-.088.169-.173.156-.304.076.049.157.094.239.138.186.103.373.205.496.358.108.135.157.315.208.497.03.108.06.216.102.317l.097.227.083.196c.29.687.58 1.375.916 2.04.06.118.239.175.419.232.082.027.165.053.236.086a.566.566 0 01.016-.036l.004-.007.011-.023.01-.017c.02-.04.043-.079.066-.119.084-.147.168-.293.167-.439a18.28 18.28 0 00-.138-1.983 27.304 27.304 0 01-.034-.313c-.05-.474-.1-.957-.283-1.377-.557-1.279-1.148-2.553-1.859-3.75a7.928 7.928 0 00-1.738-2.028c-.603-.498-1.296-.889-1.987-1.278v-.001h-.002a71.833 71.833 0 01-.55-.313 135.606 135.606 0 00-3.376-1.881l-.037-.021c-.133-.075-.289-.165-.428.14-.262.572-.54 1.138-.818 1.703-.434.883-.868 1.765-1.24 2.673l-.01.024-.015.037c-.146.347-.404.959.386 1.298.847.363 1.681.885 2.35 1.519 1.967 1.863 2.854 4.354 3.735 6.827l.069.194c.17.476.292.97.413 1.463.058.234.116.468.178.701l.031.106.046.145.037.116c.042-.03.09-.058.138-.085.103-.059.207-.118.243-.206.372-.892.484-1.789.207-2.759-.22-.771-.3-1.586-.378-2.389l-.007-.074c-.01-.098.127-.21.264-.323.063-.052.127-.104.175-.154.017.021.034.042.053.063.018.022.037.043.057.064.083.091.166.182.195.288.063.226.121.452.18.683.108.419.219.851.365 1.312.051.234.1.467.149.7.14.661.279 1.322.454 1.973zm-8.972-14.903c.105-.252.23-.495.355-.737.303-.586.607-1.174.624-1.913.015-.677-.108-1.04-.654-1.373-.578-.353-1.236-.565-1.751-.16-1.169.922-2.248 1.993-2.873 3.364-.394.864-.678 1.779-.961 2.693v.001l-.001.001v.002c-.097.312-.194.624-.295.933-.058.178-.03.398.007.589.226 1.141 1.078 1.705 2.025 2.183.5.252.87.127 1.094-.367l.223-.492.235-.525c.318-.713.643-1.438 1.005-2.196.1-.205.203-.408.306-.612v-.001c.232-.458.464-.917.661-1.39zM44.042 197.085a49.437 49.437 0 001.436-3.783c.28-.857.526-1.725.772-2.592.224-.786.447-1.572.695-2.35.389-1.221.797-2.435 1.205-3.65.38-1.136.762-2.271 1.128-3.411.685-2.135 1.352-4.275 2.02-6.414v-.002c.3-.962.601-1.924.903-2.885l.24-.759c.215-.672.429-1.343.62-2.021.03-.101-.029-.226-.087-.351a1.617 1.617 0 01-.071-.172c-.06.04-.128.074-.197.109-.148.076-.297.151-.35.27a60.287 60.287 0 00-1.46 3.409 82.555 82.555 0 00-1.136 3.219l-.183.541-.204.6v.001c-.382 1.123-.764 2.246-1.104 3.382-.352 1.176-.686 2.358-1.02 3.54v.002c-.245.865-.49 1.729-.74 2.592-.093.316-.184.633-.276.95v.001c-.385 1.333-.77 2.667-1.218 3.978-.28.817-.574 1.628-.87 2.443a97.96 97.96 0 00-1.208 3.453c.548.723.757.73 1.105-.1zM167.74 222.68c.331-.022.663-.047.994-.071.731-.054 1.463-.109 2.195-.144.965-.047 1.93-.09 2.895-.132h.008c1.275-.056 2.55-.111 3.825-.178.1-.006.196-.106.292-.206.044-.047.089-.094.134-.131a1.8 1.8 0 01-.073-.046l-.041-.028h-.001a1.143 1.143 0 00-.272-.152c-.075-.026-.162-.019-.248-.013-.038.003-.076.006-.114.006h-29.003c-.045 0-.096-.006-.146-.012-.11-.013-.221-.026-.282.023a2.11 2.11 0 00-.521.616c-.026.049.226.344.382.379.431.096.879.155 1.32.156 6.195.009 12.389.006 18.656-.067zm45.298.865c-1.17.472-2.339.932-3.505 1.39-2.219.873-4.425 1.741-6.602 2.677-1.487.639-2.977.738-4.526.692-.131-.004-.262-.034-.393-.063-.141-.032-.281-.064-.422-.064-.113 0-.227.063-.34.126-.051.028-.102.056-.153.078l.03.05.045.081c.054.098.107.196.186.266.224.201.457.406.721.544 2.007 1.051 3.167 3.92 2.458 6.073-.349 1.057-.77 2.18-1.475 3.003-.574.669-1.574 1.11-2.466 1.342-1.409.366-2.879.377-4.3-.138-1.242-.45-2.134-1.284-2.791-2.41-1.598-2.738-.942-5.112.758-7.322.223-.29.582-.473.945-.657.202-.103.406-.207.587-.33.129-.087.228-.216.328-.346l.074-.095.046-.055.019-.023c-.08-.02-.16-.043-.239-.067a2.333 2.333 0 00-.551-.115c-.128-.006-.256.027-.385.06-.12.031-.24.062-.359.062l-4.539.002c-10.233.007-20.466.013-30.699-.003-2.473-.004-4.946-.041-7.419-.078-1.455-.022-2.91-.043-4.364-.058a247.824 247.824 0 00-3.226-.006c-.49.002-.979.003-1.469.003l-.316-.001c-.292-.002-.584-.004-.876.008-.061.002-.12.043-.179.085l-.036.025-.021.013a.226.226 0 01-.026.016l.079.056c.056.041.112.082.171.118.245.153.503.294.76.434.553.302 1.106.604 1.539 1.027 2.969 2.897 2.011 8.622-2.43 9.769-3.593.928-6.768-.266-7.834-4.533-.658-2.63 1.1-5.767 3.759-6.588.116-.036.215-.122.314-.209.046-.04.092-.081.14-.116a1.384 1.384 0 01-.146-.094c-.105-.072-.21-.144-.315-.145-3.506-.014-6.791-1.033-10.013-2.252-4.328-1.637-8.536-3.546-12.432-6.065l-.074-.048c-.72-.465-1.462-.944-1.717-1.916-.475-1.819.445-3.222 2.143-3.683 1.809-.491 3.543.026 5.251.574 2.965.951 5.928 1.908 8.89 2.866l4.941 1.596.215.069c.894.289 1.788.577 2.689.84.331.097.687.146 1.032.147 1.487.005 2.974.006 4.461.007 1.48.001 2.96.001 4.44.007.219.001.596.062.628.173.069.239.068.499.068.758-.001.102-.001.203.003.303a.61.61 0 01-.066-.027c-.047-.022-.095-.044-.14-.04a17.06 17.06 0 00-.501.057h-.002c-.249.03-.497.061-.747.074-.868.045-1.735.085-2.603.125-1.159.054-2.319.108-3.477.173-2.051.115-3.985-.463-5.901-1.036l-.018-.005c-1.488-.444-2.956-.951-4.425-1.458l-.004-.001c-.829-.286-1.658-.572-2.49-.846a380.44 380.44 0 00-3.13-1.015h-.001v-.001h-.003l-.001-.001h-.001c-1.206-.388-2.412-.775-3.614-1.175a8.983 8.983 0 01-.895-.371c-.471-.215-.939-.428-1.431-.501-.905-.135-1.873-.062-2.775.116-.353.07-.748.63-.859 1.039-.148.545-.047 1.083.591 1.488 2.963 1.884 6.085 3.445 9.292 4.862 2.914 1.287 5.922 2.29 8.994 3.108.493.132 1.026.142 1.542.152 1.177.022 2.354.037 3.531.051 1.989.025 3.978.05 5.965.11 2.201.067 4.4.174 6.6.281a777.825 777.825 0 005.79.264c1.314.057 2.628.114 3.942.174.284.013.568.037.851.061.5.041.998.083 1.496.067.436-.014.87-.074 1.304-.135h.001c.376-.052.751-.104 1.129-.127.255-.015.512.023.77.061.209.031.419.062.628.065l.754.011h.001c1.159.019 2.319.037 3.475-.018.999-.047 1.995-.126 2.992-.205.961-.075 1.922-.151 2.884-.199.286-.015.574.056.864.128.255.062.51.125.765.13 1.751.036 3.502.033 5.253.008a148.1 148.1 0 005.119-.15 8.216 8.216 0 001.016-.133c.502-.087 1.001-.173 1.487-.12 1.95.212 3.907.265 5.862.319h.002c1.342.037 2.683.074 4.021.162 2.416.158 4.556-.419 6.675-1.285a153.368 153.368 0 008.505-3.757c1.745-.84 3.411-1.852 5.07-2.86l.303-.185c1.058-.642 1.865-1.548 2.197-2.793.167-.628-.182-1.108-.812-1.122-1.953-.043-3.736.635-5.509 1.317a443.466 443.466 0 00-7.704 3.054c-1.035.421-2.063.862-3.09 1.302-.768.33-1.537.66-2.309.981a2.35 2.35 0 01-.872.177c-2.438.009-4.876.009-7.315.008h-.01l-2.013-.001-2.015.001c-1.817 0-3.634.001-5.452-.002a55.326 55.326 0 01-1.865-.045c-.04-.002-.104-.101-.108-.158a2.19 2.19 0 01.001-.243 1.585 1.585 0 00-.012-.338c-.084-.466.115-.537.545-.535a626.018 626.018 0 0010.108-.001h.001c2.593-.019 5.188-.038 7.776-.17.821-.042 1.648-.399 2.434-.739l.144-.062.057-.024c4.485-1.924 9.016-3.729 13.685-5.162.845-.259 1.746-.357 2.638-.454.168-.018.337-.036.504-.056.608-.07 1.253-.114 1.843.011.936.199 1.325 1.098 1.039 2.037-.521 1.706-1.561 3.005-3.075 3.927a617.58 617.58 0 01-3.241 1.958l-.011.008h-.001l-.001.001h-.002c-1.003.604-2.011 1.211-3.027 1.828zm-14.921 7.892c-1.705-1.856-3.675-2.198-6.025-.84-1.358.785-1.953 2.63-1.839 3.799.123 1.259.752 2.303 1.713 3.12 1.153.981 2.502.983 3.89.684 3.085-.663 4.011-4.669 2.261-6.763zm-66.541 2.037c0 .132-.003.265-.005.398-.005.287-.01.575.008.86.156 2.358 2.893 4.189 5.306 3.496 1.718-.494 2.708-1.52 3.059-3.321.538-2.762-1.178-4.753-3.548-5.096-2.341-.338-4.267.954-4.82 3.663zm18.832 8.361h36.067c6.013.001 12.025.002 18.038-.019.392-.001.824-.227 1.148-.449.086-.06-.098-.534-.277-.737-.122-.138-.452-.188-.688-.188-19.162-.005-38.325-.007-57.487-.008h-.195l-22.585-.002a12.3 12.3 0 01-.835-.037h-.002a14.53 14.53 0 00-.299-.019c-.462-.028-1.061.588-.87.94.274.507.836.52 1.386.52l26.568-.001h.031zm-48.206.361H98.54c-5.356 0-10.672 0-15.99-.002-.055 0-.112.002-.169.004-.358.011-.716.023-.86-.444-.165-.541.062-.934.666-1.005.114-.013.231-.009.348-.006.054.002.108.004.16.004h5.63c9.43 0 18.859 0 28.287-.002l.057-.001h.036c.49-.002.952-.005.932.656-.018.547-.342.796-1.097.796H102.202zm126.968.002h3.792l2.444.001H235.435c3.105 0 6.174.001 9.243-.006a4.3 4.3 0 00.955-.138c.086-.02.172-.17.193-.271.157-.78-.096-1.035-1.01-1.035h-33.91c-.053 0-.107-.002-.161-.004-.118-.005-.235-.011-.347.008-.623.106-.845.538-.598 1.061.19.401.541.393.894.385l.147-.002 18.141.001h.188zM202.76 48.68c.127-.013.723.08 1.458.195h.001c1.005.156 2.27.353 2.948.375.68.022.035.75-.077.754-1.5.064-4.75-.926-4.33-1.324zm2.19 5.741c-.635-.24-.332-2.186.298-2.186.622 0 .322 2.42-.298 2.186zm-9.149 178.367c.549 1.246.512 1.755-.142 2.433-.446.462-1.255.541-1.762.171-.542-.395-.793-1.329-.532-1.977.46-1.14 1.47-1.419 2.436-.627zm-58.806.096c-.853-.789-1.702-.745-2.746.277-.38.88-.194 1.812 1.215 2.061.759.134 1.208-.09 1.628-.545.436-.472.311-1.415-.097-1.793z" fill="#00160A"/><path fill-rule="evenodd" clip-rule="evenodd" d="M186.493 74.254c-1.268-.372-1.569-2.296-2.849-2.628-1.266-.329-2.482 1.17-3.744.828-.858-.233-1.259-1.18-1.734-1.932-.463-.731-1.437-1.391-2.132-.92l-.057.043c-.965.76-2.412.28-3.384-.472-.971-.752-1.795-1.766-2.962-2.153.613-.605 1.674-.166 2.267.458.593.623 1.075 1.445 1.899 1.694 1.263.383 2.684-.79 3.876-.224.741.352 1.042 1.22 1.485 1.91.444.69 1.409 1.267 2.039.742 1.528-1.274 4.26-.466 4.849 1.434.171.552.925 1.36.447 1.22zM110.825 218.692c3.525 2.076 14.565 8.192 22.658 8.395l66.938.21s35.197-12.377 9.463-7.707c-1.456.264-5.628 2.759-12.334 3.302-12.261.994-64.067.359-64.067.359s-23.585-5.105-22.658-4.559z" fill="#E7EAEE"/><path fill-rule="evenodd" clip-rule="evenodd" d="M53.339 177.513c.082-.092.182-.157.244-.131.705.292 1.112.038 1.326-.658.035-.116.216-.187.33-.279.105.14.297.279.298.419.001.464.203.683.644.821.188.058.3.359.446.55-.148.034-.37.022-.426.112a1.444 1.444 0 00-.193.638c-.015.187.078.379.095.571.021.252-.02.437-.317.183-.593-.507-1.108-.317-1.615.162-.123.116-.339.134-.512.197.031-.157.04-.324.099-.471.302-.774.093-1.439-.42-2.114z" fill="#FFB61D"/><circle cx="198.741" cy="59.181" fill="#FFB61D" r="2.557"/><path fill-rule="evenodd" clip-rule="evenodd" d="M162.15 81.942l.294.453.098.147c.616.904 1.553 1.793 2.594 1.53 2.771-.702 5.923.522 7.494 2.909.777 1.18 2.503.948 3.913.646l.186-.04c1.415-.314 3.371-.167 3.729 1.204l.018.08c.165.788 1.159 1.028 1.977 1.007l.253-.009c2.057 0 2.326 1.131 2.326 1.015 0 0-4.521-.343-5.473-1.876l-.058-.098c-.606-1.061-2.136-.888-3.333-.528l-.33.103-.165.048c-1.169.328-2.587.446-3.174-.562-1.345-2.314-4.149-3.689-6.804-3.337-.683.09-1.392.283-2.046.066-1.565-.518-1.77-2.935-3.31-3.524-1.943-.743-3.824 2.081-5.835 1.548a16.34 16.34 0 014.014-2.246c.481-.186.992-.351 1.504-.29.948.116 1.584.93 2.128 1.754zm24.689 2.788a15.406 15.406 0 00-.432 1.578c-.197-1.298-1.487-2.497-2.702-2.077l-.07.026c-.772.307-1.589-.33-2.088-.994l-.119-.162-.18-.247c-.403-.55-.838-1.094-1.483-1.251-1.181-.287-2.223.889-3.43 1.029-2.793.325-4.189-4.675-6.932-4.055-.599.136-1.118.547-1.727.63-1.681.23-2.583-1.909-4.001-2.842-1.066-.703-2.571-.66-3.596.101.052-1.22 1.713-1.758 2.846-1.3 1.133.46 1.912 1.493 2.853 2.273.918.762 2.28 1.284 3.279.665l.076-.05c1.202-.832 2.81.224 3.749 1.344l.341.409c.857 1.02 1.837 2.08 3.121 1.981 1.18-.09 2.184-1.188 3.355-1.013 1.705.256 2.401 3.004 4.116 2.818a4.011 4.011 0 013.072.992l-.048.145zm.885-5.75a5.034 5.034 0 01-.828.93l-.092.075-.231-.165c-1.121-.796-2.345-1.571-3.708-1.54-.498.013-1.008.133-1.486-.008-1.269-.372-1.57-2.296-2.849-2.628-1.266-.329-2.482 1.17-3.745.828-.858-.233-1.259-1.18-1.734-1.932-.462-.73-1.436-1.39-2.132-.919l-.057.042c-.965.76-2.412.28-3.383-.472-.972-.752-1.796-1.766-2.962-2.153.612-.604 1.673-.166 2.266.458s1.076 1.445 1.9 1.695c1.262.382 2.684-.79 3.875-.225.741.352 1.042 1.22 1.486 1.91.443.69 1.409 1.268 2.038.743 1.529-1.275 4.26-.467 4.849 1.434.171.55.905.68 1.472.569.567-.111 1.149-.358 1.7-.185.7.22 1.059 1.035 1.734 1.325.702.301 1.541-.082 2.011-.688l.047-.064c.378-.529.201.45-.171.97zM173.015 93.474l.211.062c.284.087.497.214.746.425l.123.108.156.142c.075.069.135.12.195.17.414.34.883.55 1.666.674.524.083.894 0 1.532-.297l.23-.11c1.031-.497 1.63-.636 2.597-.414.826.19 1.205.51 1.513 1.111l.078.16c.148.308.624.592 1 .817.281.168.506.303.495.388-.027.2-1.77-.123-2.117-.815l-.075-.155c-.225-.464-.431-.65-1.058-.794-.735-.169-1.18-.08-2.001.306l-.23.11c-.832.4-1.342.532-2.079.415-.911-.145-1.5-.41-2.014-.831a3.563 3.563 0 01-.107-.09l-.306-.276c-.214-.191-.36-.285-.557-.345l-.121-.037c-.51-.149-1.677.239-2.528.521-.533.177-.942.313-.987.25-.095-.139 2.622-1.768 3.638-1.495zm-.125 5.552l.196.055c.263.076.461.188.691.373l.114.095.145.125c.07.06.125.106.181.15.384.298.819.483 1.545.592.487.073.83 0 1.421-.261l.213-.097c.956-.437 1.512-.559 2.409-.364.765.167 1.117.448 1.403.977l.072.14c.137.27.578.521.927.718.261.148.47.266.459.342-.025.175-1.641-.109-1.963-.717l-.069-.136c-.209-.408-.4-.571-.981-.698-.682-.148-1.095-.071-1.856.269l-.213.096c-.772.352-1.245.468-1.928.365-.845-.127-1.391-.36-1.868-.73a6.841 6.841 0 01-.099-.079l-.284-.243c-.199-.168-.334-.25-.517-.303l-.112-.032c-.473-.131-1.555.21-2.344.458-.495.155-.874.275-.915.218-.089-.121 2.431-1.552 3.373-1.313zm.363 5.9l-.185-.055c-.89-.239-3.27 1.192-3.186 1.313.039.057.397-.063.865-.219.745-.248 1.767-.588 2.213-.457l.106.032c.173.053.3.135.488.303l.268.243.094.079c.45.37.966.603 1.764.73.645.103 1.092-.013 1.821-.365l.201-.096c.719-.34 1.109-.417 1.753-.269.549.127.729.29.926.698l.066.136c.304.608 1.83.892 1.854.717.01-.076-.187-.194-.434-.342-.329-.197-.746-.448-.875-.718l-.068-.14c-.27-.529-.603-.81-1.326-.977-.846-.195-1.371-.073-2.274.364l-.201.097c-.559.261-.883.334-1.343.261-.685-.109-1.096-.294-1.459-.593-.053-.043-.104-.089-.171-.149l-.136-.125-.108-.095a1.74 1.74 0 00-.653-.373zm-.185 6.886l.185.055c.248.076.435.188.653.373l.108.095.136.125c.067.06.118.106.171.149.363.299.774.484 1.459.593.46.073.784 0 1.343-.261l.201-.097c.903-.437 1.428-.559 2.274-.364.723.167 1.056.448 1.326.976l.068.141c.129.27.546.52.875.718.247.148.444.266.434.341-.024.176-1.55-.108-1.854-.716l-.066-.136c-.197-.408-.377-.571-.926-.698-.644-.148-1.034-.071-1.753.268l-.201.097c-.729.352-1.176.468-1.821.365-.798-.127-1.314-.36-1.764-.73a3.335 3.335 0 01-.094-.08l-.268-.242c-.188-.168-.315-.25-.488-.303l-.106-.032c-.446-.131-1.468.209-2.213.457-.468.156-.826.275-.865.219-.084-.121 2.296-1.553 3.186-1.313zm.749 6.996l-.196-.055c-.942-.24-3.462 1.192-3.373 1.313.041.056.42-.063.915-.219.789-.248 1.871-.588 2.344-.457l.112.032c.183.053.318.135.517.303l.283.242.099.08c.477.37 1.024.603 1.868.73.683.103 1.156-.013 1.929-.365l.213-.097c.761-.339 1.174-.416 1.855-.268.582.127.773.29.981.698l.07.136c.322.608 1.938.892 1.963.716.011-.075-.198-.193-.459-.341-.349-.198-.79-.448-.927-.719l-.072-.14c-.286-.528-.638-.809-1.404-.976-.896-.195-1.452-.073-2.408.364l-.213.096c-.592.262-.935.335-1.421.262-.726-.109-1.161-.295-1.545-.593a4.314 4.314 0 01-.181-.149l-.145-.125-.114-.095a1.862 1.862 0 00-.691-.373zm1.796 6.368l.202.02c.272.029.486.105.746.247l.128.074.165.098c.079.047.141.082.204.115.43.227.89.334 1.624.316.492-.013.817-.145 1.354-.505l.193-.132c.866-.596 1.392-.813 2.309-.776.783.031 1.178.247 1.551.718l.096.125c.182.243.66.413 1.037.547.283.1.509.18.512.256.006.178-1.635.179-2.058-.364l-.092-.122c-.276-.366-.493-.494-1.087-.517-.697-.028-1.091.12-1.781.586l-.193.133c-.7.48-1.145.676-1.836.693-.853.022-1.432-.112-1.966-.394l-.111-.061-.322-.19c-.225-.13-.372-.188-.561-.208l-.116-.012c-.489-.048-1.495.476-2.229.857-.46.239-.813.423-.863.375-.109-.104 2.124-1.952 3.094-1.879zm4.608 4.73l-.162.016c-.775.09-2.315 1.793-2.217 1.854.046.029.302-.16.637-.406.533-.392 1.265-.93 1.657-.968l.093-.009c.152-.013.275.008.469.072l.277.092.095.029c.456.13.929.143 1.601 0 .544-.116.872-.328 1.366-.788l.137-.127c.489-.449.782-.617 1.336-.701.472-.07.658-.008.921.222l.088.077c.399.34 1.696.095 1.67-.036-.012-.056-.2-.082-.436-.114-.314-.043-.713-.098-.885-.251l-.091-.079c-.352-.294-.691-.395-1.313-.301-.728.109-1.118.348-1.729.919l-.137.127c-.381.347-.622.493-1.009.576-.577.123-.954.112-1.321.008a2.81 2.81 0 01-.176-.056l-.141-.048-.111-.035a1.538 1.538 0 00-.619-.073zm3.857 3.304l.162-.016a1.54 1.54 0 01.619.073l.11.035.142.048.175.056c.368.104.744.115 1.322-.008.387-.083.628-.229 1.009-.576l.136-.127c.612-.571 1.001-.81 1.73-.92.622-.093.961.008 1.313.302l.09.079c.173.153.572.207.886.25.236.033.424.059.435.115.026.13-1.27.376-1.669.036l-.088-.077c-.263-.23-.449-.293-.922-.222-.554.083-.847.252-1.336.701l-.136.127c-.494.46-.823.672-1.366.788-.672.143-1.145.13-1.601 0l-.096-.029-.277-.093a1.09 1.09 0 00-.468-.071l-.094.009c-.391.037-1.123.575-1.657.968-.334.246-.591.434-.636.406-.098-.061 1.442-1.764 2.217-1.854zm5.305 3.538l-.127.036c-.607.181-1.598 1.76-1.511 1.795.04.016.219-.171.452-.415.371-.389.88-.922 1.188-1.007l.073-.02a.871.871 0 01.385-.009l.234.035.081.009c.382.04.763-.016 1.28-.225.418-.17.65-.385.981-.823l.091-.121c.327-.427.538-.603.969-.748.368-.123.525-.1.768.047l.081.049c.367.216 1.369-.163 1.33-.264-.017-.043-.172-.037-.365-.03-.257.01-.583.023-.743-.075l-.084-.051c-.322-.185-.607-.218-1.092-.055-.567.19-.844.436-1.253.979l-.091.12c-.255.331-.427.482-.725.603-.444.179-.747.224-1.055.192a5.597 5.597 0 01-.148-.019l-.12-.019-.094-.013a1.271 1.271 0 00-.505.029zm3.933 2.987l.128-.035c.172-.046.318-.051.505-.029l.093.013.12.018c.058.009.103.015.148.02.308.031.611-.013 1.055-.193.298-.12.47-.271.726-.602l.091-.121c.408-.543.686-.789 1.253-.979.484-.162.769-.129 1.092.056l.083.05c.16.098.486.086.744.076.193-.008.347-.013.364.03.039.101-.963.479-1.33.264l-.081-.049c-.242-.147-.4-.171-.768-.047-.431.144-.641.32-.969.748l-.091.12c-.33.438-.563.654-.981.823-.517.209-.897.265-1.28.226l-.08-.01-.235-.035a.903.903 0 00-.385.009l-.073.02c-.307.086-.817.619-1.188 1.008-.233.244-.411.431-.452.414-.087-.034.905-1.613 1.511-1.795zm4.877 2.887l-.128.036c-.606.181-1.597 1.76-1.51 1.795.04.016.219-.171.451-.415.372-.389.881-.922 1.189-1.007l.073-.02a.871.871 0 01.385-.009l.234.035.08.009c.383.04.763-.016 1.28-.225.419-.17.651-.385.981-.823l.091-.121c.328-.427.539-.603.97-.748.367-.123.525-.1.768.047l.081.049c.367.216 1.369-.163 1.329-.264-.017-.043-.171-.037-.364-.03-.257.01-.583.023-.743-.075l-.084-.051c-.323-.185-.607-.218-1.092-.056-.567.191-.844.436-1.253.98l-.091.12c-.256.331-.428.482-.725.603-.445.179-.747.224-1.056.192l-.148-.019-.12-.019-.093-.013a1.271 1.271 0 00-.505.029z" fill="#FFB61D"/></svg>