<svg viewBox="0 0 255 47" xmlns="http://www.w3.org/2000/svg"><g fill="currentColor" fill-rule="evenodd"><path d="M95.03 10.86c-4.026 0-8.605 1.867-11.403 5.603l.002-.007-.002.002.002-5.011h-9.603v34.97h9.601V26.518c0-3.581 2.777-7.388 7.918-7.388 3.974 0 8.085 2.764 8.085 7.388v19.899h9.603V24.739c0-8.043-5.755-13.879-14.203-13.879M160.445 11.449l8.681 23.82 8.681-23.82h10.97l-14.389 34.958h-10.522l-14.388-34.958zM45.359 21.983c1.635-2.196 4.24-3.485 7.386-3.485 3.46 0 6.086 1.977 7.443 4.894l-16.777 6.96c-.458-3.572.456-6.366 1.948-8.369zm18.448 13.682c-4.041 2.991-6.35 3.705-10.036 3.705-3.316 0-5.913-1.03-7.744-2.836l24.55-10.184c-.536-3.795-1.977-7.185-4.193-9.764-3.226-3.746-8-5.728-13.813-5.728-10.559 0-18.52 7.79-18.52 18.078 0 10.555 7.98 18.075 19.578 18.075 6.498 0 13.143-3.08 16.25-6.678l-6.072-4.668zM32.515 37.6H10.689V.987H.956v45.43h31.559zM205.692 19.087c5.363 0 9.257 4.064 9.257 9.845 0 5.52-4.125 9.845-9.385 9.845-5.365 0-9.257-4.175-9.257-9.845 0-5.52 4.123-9.845 9.385-9.845m0 27.919c10.502 0 18.73-7.824 18.73-18.074 0-10.134-8.285-18.073-18.858-18.073-10.502 0-18.729 7.823-18.729 18.073 0 10.133 8.283 18.074 18.857 18.074M131.76 19.087c5.363 0 9.255 4.064 9.255 9.845 0 5.52-4.123 9.845-9.385 9.845-5.363 0-9.255-4.175-9.255-9.845 0-5.52 4.123-9.845 9.385-9.845m0 27.919c10.502 0 18.729-7.824 18.729-18.074 0-10.134-8.283-18.073-18.86-18.073-10.5 0-18.728 7.823-18.728 18.073 0 10.133 8.286 18.074 18.86 18.074"/></g></svg>