<svg viewBox="0 0 277 40" xmlns="http://www.w3.org/2000/svg"><path d="M80.857 39.853c-8.221 0-15.853-2.459-20.948-7.02-3.849-3.445-5.698-8.125-5.698-12.942 0-4.758 1.93-9.47 5.698-12.897C64.639 2.694 72.993 0 80.857 0c8.703 0 15.669 2.186 20.994 7.005 3.789 3.43 5.62 8.12 5.62 12.887 0 4.62-1.943 9.539-5.62 12.942-4.959 4.59-12.75 7.02-20.994 7.02v-5.257c4.364 0 8.412-1.503 11.24-4.308 2.807-2.787 4.115-6.212 4.115-10.398 0-4.01-1.411-7.759-4.116-10.418-2.789-2.74-6.934-4.282-11.239-4.282-4.318 0-8.465 1.526-11.257 4.282-2.69 2.658-4.104 6.418-4.104 10.418 0 3.988 1.43 7.746 4.104 10.398 2.794 2.772 6.927 4.308 11.257 4.308v5.257zM20.765.02c-4.398 0-9.394.82-13.64 2.711C3.207 4.474 0 7.294 0 11.97c-.002 4.21 2.681 6.675 2.608 6.607 1.141 1.048 2.979 2.832 7.782 3.88 2.146.468 6.736 1.187 11.306 1.663 4.537.478 9.001.931 10.82 1.39 1.444.367 3.871.867 3.871 3.582 0 2.705-2.557 3.53-3.001 3.71-.444.174-3.511 1.578-9.025 1.578-4.07 0-8.964-1.22-10.748-1.857-2.057-.73-4.214-1.696-6.226-4.147-.5-.608-1.29-2.28-1.29-3.934h-4.99v13.945h5.547v-1.884c0-.214.269-1.097 1.2-.677 1.158.525 4.56 1.875 8.115 2.616 2.915.608 4.795 1.044 8.42 1.044 5.914 0 9.09-.961 11.287-1.586 2.07-.591 4.626-1.652 6.703-3.304 1.125-.893 3.591-3.183 3.591-7.339 0-3.989-2.146-6.465-2.902-7.218-1.028-1.026-2.285-1.822-3.594-2.435-1.14-.535-2.941-1.179-4.414-1.538-2.859-.7-9.323-1.564-12.415-1.886-3.241-.338-8.865-.803-11.11-1.496-.682-.21-2.07-.87-2.07-2.477 0-1.143.635-2.112 1.89-2.896 1.991-1.244 6.014-2.018 10.207-2.018 4.958-.018 9.156 1.112 11.827 2.303.908.405 1.971.986 2.815 1.673.953.775 2.29 2.384 2.774 4.63h4.48V1.758h-5.003V3.17c0 .455-.471 1.047-1.363.558C34.853 2.557 28.524.03 20.764.02zm109.623 2.206l24.402 21.964-.25-14.788c-.025-1.94-.383-2.749-2.486-2.749h-4.588V2.23h20.864v4.423h-4.476c-2.144 0-2.28.684-2.306 2.749l.379 28.256h-7.146l-28.106-25.018.006 17.755c.025 1.93.116 2.84 2.11 2.84h5.01v4.421h-20.49v-4.421h4.79c1.79 0 1.718-1.702 1.718-2.94V9.569c0-1.338-.188-2.914-2.997-2.914h-3.887v-4.43h17.453zm61.784 31c.196 0 1.066-.025 1.235-.076.481-.15.808-.493.96-.85.063-.15.095-.814.095-.958l.004-6.991c0-.168-.012-.24-.299-.615-.314-.41-12.781-14.5-13.352-15.12-.708-.771-1.953-1.962-3.843-1.962h-4.336V2.227h24.468v4.42h-2.95c-.682 0-1.135.646-.552 1.363 0 0 8.232 9.821 8.31 9.924.076.105.142.13.247.034.103-.098 8.439-9.868 8.504-9.945.397-.474.128-1.37-.727-1.37h-3.025V2.226h20.053v4.425h-4.48c-1.626 0-2.287.3-3.51 1.679-.559.63-13.16 14.975-13.502 15.364-.18.203-.164.486-.164.654v6.99c0 .142.032.806.096.956.152.359.48.701.961.85.17.051 1.028.077 1.223.077h4.583v4.424h-24.342v-4.425l4.343.004z" fill="#8198A1" fill-rule="evenodd"/></svg>