<svg fill="#A9A9A9" xmlns="http://www.w3.org/2000/svg" data-name="Layer 1" viewBox="0 0 100 100" x="0px" y="0px">
    <title>mail50</title>
    <path
        d="M50,0a50,50,0,1,0,50,50A50,50,0,0,0,50,0ZM70.63,67.63H29.32a4.09,4.09,0,0,1-4.22-3.18,4.62,4.62,0,0,1-.09-1V36.62a4.05,4.05,0,0,1,4.37-4.26H70.69A4,4,0,0,1,75,36.56Q75,50,75,63.43A4.05,4.05,0,0,1,70.63,67.63Z">
    </path>
    <path
        d="M68.92,41c0.12-.12.24-0.23,0.35-0.35a1.93,1.93,0,0,0-1.09-3.22,2.11,2.11,0,0,0-2,.68L51.41,52.43a1.72,1.72,0,0,1-2.82,0L34,38.28a6.17,6.17,0,0,0-.49-0.45,2,2,0,0,0-3.23,1.07,2,2,0,0,0,.69,2l8.92,8.69L40.31,50l-0.45.45-8.91,8.62a2,2,0,0,0-.72,1.79,1.89,1.89,0,0,0,1.34,1.59,2,2,0,0,0,2.2-.55l9-8.7,0.4-.37C44.28,53.95,45.38,55,46.46,56a4.82,4.82,0,0,0,7.08,0C54.63,55,55.75,54,57,52.81h0a1.85,1.85,0,0,0,.27.43q3.59,3.5,7.21,7c0.63,0.61,1.26,1.24,1.91,1.83a2,2,0,0,0,2.07.43,1.89,1.89,0,0,0,1.32-1.55A2,2,0,0,0,69,59.1q-4.46-4.3-8.91-8.62L59.62,50a6.59,6.59,0,0,0,.53-0.42Z">
    </path>
</svg>