<svg viewBox="0 0 36 36" fill="none" xmlns="http://www.w3.org/2000/svg">
<path d="M0 1C0 0.447716 0.447715 0 1 0H33.5858C34.4767 0 34.9229 1.07714 34.2929 1.70711L18 18L1.7071 34.2929C1.07714 34.9229 0 34.4767 0 33.5858V1Z" fill="#FFB61D"/>
<path d="M4.82843 5.65686L7.41784 6.97624L9.47282 4.92126L9.01819 7.79165L11.6076 9.11103L8.73722 9.56565L8.28259 12.436L6.96322 9.84663L4.09283 10.3013L6.1478 8.24628L4.82843 5.65686Z" fill="white"/>
<path d="M10.0023 21.3027L5.98067 17.2811L7.29544 15.9663C7.73186 15.5299 8.14986 15.2923 8.54945 15.2537C8.95088 15.2132 9.32837 15.3697 9.68193 15.7232C9.86975 15.9111 9.983 16.1311 10.0217 16.3834C10.0585 16.6338 10.0244 16.8907 9.91947 17.154C10.1975 16.9975 10.4848 16.9422 10.7813 16.9883C11.0777 17.0306 11.3438 17.1697 11.5795 17.4054C11.9404 17.7663 12.1071 18.1668 12.0795 18.6069C12.0518 19.047 11.8244 19.4807 11.3972 19.9079L10.0023 21.3027ZM8.65165 18.8914L10.099 20.3388L10.9746 19.4632C11.2214 19.2164 11.3521 18.9586 11.3668 18.6898C11.3816 18.4172 11.2766 18.1686 11.0519 17.944C10.5677 17.4597 10.0622 17.4809 9.53553 18.0075L8.65165 18.8914ZM8.22628 18.466L9.0273 17.665C9.25932 17.433 9.38638 17.1899 9.40848 16.9358C9.43241 16.6798 9.34495 16.4524 9.14607 16.2536C8.9251 16.0326 8.70045 15.9368 8.47211 15.9663C8.24193 15.9939 7.99518 16.1394 7.73186 16.4027L6.94741 17.1872L8.22628 18.466ZM14.7422 16.6734C14.337 17.0785 13.8748 17.2755 13.3556 17.2645C12.8344 17.2516 12.3511 17.0224 11.9054 16.5767L11.8115 16.4828C11.5151 16.1863 11.307 15.8659 11.1873 15.5216C11.0676 15.1736 11.0437 14.8329 11.1155 14.4996C11.1873 14.1626 11.342 13.8754 11.5795 13.6378C11.9681 13.2493 12.398 13.0753 12.8694 13.1158C13.3408 13.1563 13.815 13.415 14.2919 13.8919L14.5046 14.1046L12.48 16.1293C12.782 16.4165 13.1061 16.5694 13.4522 16.5878C13.7984 16.6025 14.0986 16.4828 14.3527 16.2287C14.5332 16.0482 14.6492 15.8586 14.7007 15.6597C14.7523 15.4608 14.7643 15.2537 14.7366 15.0382L15.2918 14.9692C15.4262 15.6045 15.243 16.1725 14.7422 16.6734ZM11.9994 14.0577C11.7931 14.2639 11.6955 14.5125 11.7066 14.8034C11.7158 15.0925 11.8392 15.389 12.0767 15.6928L13.5738 14.1958L13.5351 14.1571C13.2607 13.9122 12.99 13.7814 12.723 13.7649C12.4542 13.7465 12.213 13.8441 11.9994 14.0577ZM17.3938 12.3258C17.2557 12.1877 17.0964 12.1334 16.916 12.1628C16.7355 12.1886 16.4878 12.3037 16.1729 12.5081C15.8599 12.7107 15.5883 12.8497 15.3581 12.9252C15.1298 12.9988 14.9254 13.0191 14.7449 12.986C14.5663 12.951 14.4033 12.8598 14.256 12.7125C14.0111 12.4676 13.9071 12.1573 13.9439 11.7817C13.9826 11.4042 14.163 11.0543 14.4853 10.732C14.8241 10.3932 15.1859 10.2063 15.5708 10.1713C15.9575 10.1345 16.2871 10.2524 16.5596 10.5249L16.0459 11.0386C15.9059 10.8987 15.7255 10.8379 15.5045 10.8563C15.2854 10.8729 15.0856 10.9714 14.9051 11.1519C14.7191 11.3379 14.6142 11.5239 14.5902 11.7098C14.5663 11.8958 14.6197 12.0542 14.7504 12.1849C14.8738 12.3083 15.0156 12.3525 15.1758 12.3175C15.336 12.2825 15.5717 12.1665 15.8829 11.9695C16.196 11.7706 16.4713 11.6316 16.7088 11.5524C16.9463 11.4732 17.159 11.452 17.3469 11.4889C17.5347 11.522 17.7087 11.6187 17.8689 11.7789C18.1359 12.0459 18.2436 12.3672 18.1921 12.7429C18.1387 13.1167 17.9416 13.4739 17.601 13.8146C17.3616 14.054 17.1075 14.2234 16.8386 14.3228C16.5698 14.4223 16.3074 14.449 16.0514 14.4029C15.7955 14.3532 15.5791 14.24 15.4023 14.0632L15.9133 13.5522C16.0938 13.7142 16.2982 13.7824 16.5265 13.7566C16.7548 13.7271 16.974 13.6074 17.1839 13.3975C17.3772 13.2042 17.4932 13.0108 17.5319 12.8175C17.5706 12.6204 17.5246 12.4565 17.3938 12.3258ZM16.3442 7.53626L17.0679 8.25994L17.6258 7.70198L18.0208 8.09697L17.4629 8.65492L19.3163 10.5083C19.4359 10.628 19.551 10.6934 19.6615 10.7044C19.7702 10.7136 19.8843 10.6584 20.004 10.5387C20.063 10.4798 20.1329 10.3877 20.214 10.2625L20.6283 10.6768C20.5307 10.8481 20.4183 10.9972 20.2913 11.1243C20.063 11.3526 19.8217 11.4557 19.5676 11.4336C19.3135 11.4115 19.0594 11.2734 18.8053 11.0193L16.9519 9.16592L16.4077 9.71006L16.0127 9.31507L16.5569 8.77093L15.8332 8.04725L16.3442 7.53626Z" fill="white"/>
</svg>